<?xml version="1.0" encoding="UTF-8"?>
<svg version="1.1" xmlns="http://www.w3.org/2000/svg" width="512" height="512">
<path d="M0 0 C0.84175781 -0.00257813 1.68351563 -0.00515625 2.55078125 -0.0078125 C3.87142578 0.00378906 3.87142578 0.00378906 5.21875 0.015625 C6.09917969 0.00789062 6.97960937 0.00015625 7.88671875 -0.0078125 C8.72847656 -0.00523437 9.57023438 -0.00265625 10.4375 0 C11.59668945 0.00338379 11.59668945 0.00338379 12.77929688 0.00683594 C14.71875 0.265625 14.71875 0.265625 16.71875 2.265625 C18.62627652 2.82915936 18.62627652 2.82915936 20.83203125 3.16015625 C21.66162354 3.3082373 22.49121582 3.45631836 23.34594727 3.60888672 C24.23209717 3.76373535 25.11824707 3.91858398 26.03125 4.078125 C48.70683692 8.34632825 69.07931862 19.42702923 82.94921875 38.30078125 C93.85386865 55.32215934 99.23701807 72.77881402 100.65625 92.828125 C101.18789017 100.19351917 102.04064522 106.69704257 104.49560547 113.68310547 C106.40543713 119.12042972 107.88833941 124.60877075 109.31713867 130.19165039 C116.53093836 158.33624694 125.64252027 185.83643268 136.67236328 212.71484375 C137.0176709 213.55660156 137.36297852 214.39835938 137.71875 215.265625 C138.08597168 216.12800781 138.45319336 216.99039063 138.83154297 217.87890625 C140.06762907 221.20416153 140.09583898 223.74612787 139.71875 227.265625 C135.97020356 234.42194092 127.30850884 236.89177248 120.06152344 239.19213867 C96.02303573 246.28550755 68.72665131 248.69803828 43.71875 248.265625 C42.51504883 251.41502133 42.51504883 251.41502133 42.71875 255.265625 C44.44551233 257.31385905 46.3693225 258.82232823 48.46875 260.484375 C59.94007922 269.56584396 66.96356405 284.9316064 68.71875 299.265625 C68.71875 301.905625 68.71875 304.545625 68.71875 307.265625 C26.80875 307.265625 -15.10125 307.265625 -58.28125 307.265625 C-58.28125 289.74894381 -52.4664339 275.14866394 -40.44140625 262.33984375 C-38.58653884 260.55876854 -36.73972665 259.07184724 -34.65625 257.578125 C-33.8725 256.815 -33.08875 256.051875 -32.28125 255.265625 C-32.57171743 251.6532902 -32.57171743 251.6532902 -33.28125 248.265625 C-33.86165039 248.25104248 -34.44205078 248.23645996 -35.04003906 248.22143555 C-111.58328181 246.11180001 -111.58328181 246.11180001 -128.28125 229.265625 C-130.25268102 225.32276295 -129.74116876 221.7030045 -128.43945312 217.63476562 C-127.1875698 214.40554865 -125.86868157 211.21036255 -124.53125 208.015625 C-123.51100309 205.4904347 -122.49524577 202.9640525 -121.48828125 200.43359375 C-121.09323143 199.4418943 -121.09323143 199.4418943 -120.69020081 198.43016052 C-112.24500674 177.08848771 -105.42277619 155.25613489 -99.66577148 133.04907227 C-99.47763885 132.32420624 -99.28950623 131.59934021 -99.09567261 130.85250854 C-98.72444585 129.42122292 -98.35449428 127.9896059 -97.98587036 126.55764771 C-96.87352141 122.30275462 -95.61312133 118.12532704 -94.23703003 113.94866943 C-91.91202327 106.88181861 -90.53813545 100.27978267 -90.21875 92.828125 C-88.38388453 65.75659591 -78.60229882 40.95027295 -57.97949219 22.67285156 C-44.04129882 11.12314676 -26.34265108 5.08115616 -8.609375 2.7578125 C-4.95845833 1.98597441 -4.04098144 0.01179603 0 0 Z " fill="#010101" transform="translate(251.28125,132.734375)"/>
<path d="M0 0 C0.84175781 -0.00257813 1.68351563 -0.00515625 2.55078125 -0.0078125 C3.87142578 0.00378906 3.87142578 0.00378906 5.21875 0.015625 C6.09917969 0.00789062 6.97960937 0.00015625 7.88671875 -0.0078125 C8.72847656 -0.00523437 9.57023438 -0.00265625 10.4375 0 C11.59668945 0.00338379 11.59668945 0.00338379 12.77929688 0.00683594 C14.71875 0.265625 14.71875 0.265625 16.71875 2.265625 C18.62627652 2.82915936 18.62627652 2.82915936 20.83203125 3.16015625 C21.66162354 3.3082373 22.49121582 3.45631836 23.34594727 3.60888672 C24.23209717 3.76373535 25.11824707 3.91858398 26.03125 4.078125 C48.70683692 8.34632825 69.07931862 19.42702923 82.94921875 38.30078125 C93.85386865 55.32215934 99.23701807 72.77881402 100.65625 92.828125 C101.18789017 100.19351917 102.04064522 106.69704257 104.49560547 113.68310547 C106.40543713 119.12042972 107.88833941 124.60877075 109.31713867 130.19165039 C116.26887254 157.31379872 124.96442809 183.83354412 135.5390625 209.7578125 C137.213946 213.88733853 138.62382705 217.94744571 139.71875 222.265625 C124.18873465 215.32596521 116.43040866 189.97332313 110.71875 175.265625 C106.51029239 164.0348869 102.56047585 152.70847161 98.70703125 141.3515625 C98.39975098 140.4531665 98.0924707 139.55477051 97.77587891 138.62915039 C97.22171388 137.00352703 96.67499916 135.3753312 96.13818359 133.74389648 C92.27192069 122.3799977 85.76356548 111.10920378 74.84375 105.328125 C73.15317535 104.59804529 71.44395044 103.90963002 69.71875 103.265625 C68.90019531 102.94851562 68.08164062 102.63140625 67.23828125 102.3046875 C50.31068227 96.72190902 32.49640198 100.77101643 16.97265625 108.359375 C13.87237711 109.60593438 11.88759162 109.18106814 8.71875 108.265625 C5.19113021 108.04778394 1.76463352 107.98147334 -1.66796875 108.9140625 C-5.09657471 109.37530994 -6.90745784 108.45356108 -10.03125 107.015625 C-15.47141495 104.6154248 -15.47141495 104.6154248 -21.03125 102.515625 C-21.66546875 102.29390625 -22.2996875 102.0721875 -22.953125 101.84375 C-36.85148525 98.39247933 -51.99476711 98.87668731 -64.734375 105.55078125 C-80.39640117 115.11314077 -85.29460733 131.64970786 -90.71817017 148.11691284 C-110.22670946 207.16972917 -110.22670946 207.16972917 -127.28125 222.265625 C-127.94125 222.265625 -128.60125 222.265625 -129.28125 222.265625 C-127.49126853 216.68914427 -125.53014203 211.19333572 -123.4609375 205.71484375 C-113.16100961 178.43843963 -104.29305451 151.06939829 -96.90966797 122.85888672 C-96.68301956 121.9957637 -96.45637115 121.13264069 -96.22285461 120.24336243 C-95.79723678 118.61915666 -95.3745199 116.99418685 -94.95524597 115.36833191 C-94.16070752 112.33300731 -93.35765166 109.45262876 -92.16918945 106.54370117 C-91.19731267 104.05027739 -90.94291417 102.0094763 -90.7890625 99.34375 C-90.72630127 98.40926025 -90.66354004 97.47477051 -90.59887695 96.51196289 C-90.53531006 95.52317139 -90.47174316 94.53437988 -90.40625 93.515625 C-88.28054027 66.15651559 -78.90032213 41.21440274 -57.97949219 22.67285156 C-44.04129882 11.12314676 -26.34265108 5.08115616 -8.609375 2.7578125 C-4.95845833 1.98597441 -4.04098144 0.01179603 0 0 Z " fill="#424242" transform="translate(251.28125,132.734375)"/>
<path d="M0 0 C4.26757815 1.42252605 7.01264666 4.61222911 10.14453125 7.71484375 C20.68510093 16.91830656 29.80042878 21.91399065 43.83203125 21.90234375 C44.62915527 21.90298828 45.4262793 21.90363281 46.24755859 21.90429688 C52.05720641 21.85230898 57.53015872 21.29476768 63.14453125 19.71484375 C60.45220651 23.19902871 57.34168157 23.81090743 53.14453125 24.71484375 C50.20035284 24.9986117 47.28854323 25.04740915 44.33203125 25.02734375 C43.14988037 25.02541016 43.14988037 25.02541016 41.94384766 25.0234375 C35.98119507 24.92530703 30.67619419 24.04981705 25.14453125 21.71484375 C26.6807486 22.53760047 28.22381757 23.34756952 29.76953125 24.15234375 C30.62804687 24.60480469 31.4865625 25.05726563 32.37109375 25.5234375 C40.7313043 29.11479555 51.42113999 28.95495488 59.95703125 26.08984375 C68.50208521 22.53251415 73.82431447 17.89833131 78.14453125 9.71484375 C79.41649748 13.53074244 78.63227693 14.90243928 77.30859375 18.66015625 C76.90382813 19.81902344 76.4990625 20.97789062 76.08203125 22.171875 C75.64890625 23.38230469 75.21578125 24.59273438 74.76953125 25.83984375 C74.13144531 27.66708984 74.13144531 27.66708984 73.48046875 29.53125 C70.2999879 38.5593871 70.2999879 38.5593871 69.14453125 39.71484375 C63.55358026 39.51447361 57.98433078 38.57352925 52.47167969 37.66137695 C39.43165969 35.50947269 26.3231942 34.58087906 13.14453125 33.71484375 C12.64953125 29.75484375 12.64953125 29.75484375 12.14453125 25.71484375 C11.81453125 25.71484375 11.48453125 25.71484375 11.14453125 25.71484375 C11.26874128 33.50851413 13.13318942 38.41280787 17.51953125 44.77734375 C18.05610352 45.58953369 18.59267578 46.40172363 19.14550781 47.23852539 C20.25520734 48.91692149 21.37243039 50.59036719 22.49707031 52.25878906 C24.54620447 55.31366305 26.53234148 58.40634184 28.5168457 61.50341797 C32.83464442 68.23835759 37.25381952 74.89611143 41.78125 81.4921875 C43.14453125 83.71484375 43.14453125 83.71484375 43.14453125 85.71484375 C44.32015625 85.90046875 44.32015625 85.90046875 45.51953125 86.08984375 C48.14453125 86.71484375 48.14453125 86.71484375 50.14453125 88.71484375 C50.39453125 91.21484375 50.39453125 91.21484375 50.14453125 93.71484375 C48.14453125 95.71484375 48.14453125 95.71484375 45.14453125 95.96484375 C42.14453125 95.71484375 42.14453125 95.71484375 40.14453125 93.71484375 C40.14453125 92.72484375 40.14453125 91.73484375 40.14453125 90.71484375 C12.09453125 90.71484375 -15.95546875 90.71484375 -44.85546875 90.71484375 C-45.35046875 92.69484375 -45.35046875 92.69484375 -45.85546875 94.71484375 C-46.85546875 95.71484375 -46.85546875 95.71484375 -49.60546875 96.27734375 C-52.85546875 95.71484375 -52.85546875 95.71484375 -54.07983398 94.28125 C-57.37838504 88.6968178 -60.32088084 82.97880027 -63.16796875 77.15234375 C-66.83357424 69.70869089 -70.56801518 62.32849755 -74.6574707 55.10717773 C-75.44862196 53.67382462 -76.16124474 52.19756911 -76.85546875 50.71484375 C-76.52546875 50.05484375 -76.19546875 49.39484375 -75.85546875 48.71484375 C-73.72956977 51.65169411 -71.60490571 54.58943568 -69.48046875 57.52734375 C-68.8771875 58.36072266 -68.27390625 59.19410156 -67.65234375 60.05273438 C-67.07226562 60.85517578 -66.4921875 61.65761719 -65.89453125 62.484375 C-65.36037598 63.22276611 -64.8262207 63.96115723 -64.27587891 64.72192383 C-63.10499465 66.36474408 -61.97451069 68.03628083 -60.85546875 69.71484375 C-59.37046875 70.20984375 -59.37046875 70.20984375 -57.85546875 70.71484375 C-56.1943671 72.87513656 -54.66603732 75.00993215 -53.16796875 77.27734375 C-52.54438477 78.20063477 -52.54438477 78.20063477 -51.90820312 79.14257812 C-50.88353713 80.66191046 -49.86856197 82.18777032 -48.85546875 83.71484375 C-45.61195279 80.63030084 -43.36463371 77.03679094 -40.98046875 73.27734375 C-40.00165678 71.74847078 -39.02247394 70.21983519 -38.04296875 68.69140625 C-37.52734375 67.88477539 -37.01171875 67.07814453 -36.48046875 66.24707031 C-33.13595819 61.03534202 -29.74340746 55.85464887 -26.35986328 50.66821289 C-25.33816642 49.09886987 -24.32020111 47.5270897 -23.30639648 45.95263672 C-22.35019018 44.47786186 -21.37859855 43.01293278 -20.39086914 41.55908203 C-17.73588699 37.56120318 -16.22756342 34.63736826 -16.04296875 29.71484375 C-15.99527344 28.76609375 -15.94757813 27.81734375 -15.8984375 26.83984375 C-15.88425781 26.13859375 -15.87007813 25.43734375 -15.85546875 24.71484375 C-17.82369761 26.68307261 -17.51795256 30.06293084 -17.85546875 32.71484375 C-18.85175293 32.81506836 -19.84803711 32.91529297 -20.87451172 33.01855469 C-45.07992379 35.28112527 -45.07992379 35.28112527 -68.890625 39.98046875 C-71.85546875 40.71484375 -71.85546875 40.71484375 -74.85546875 40.71484375 C-76.17202307 36.4869284 -77.48300211 32.25730441 -78.79296875 28.02734375 C-79.16615234 26.82916016 -79.53933594 25.63097656 -79.92382812 24.39648438 C-80.28154297 23.23955078 -80.63925781 22.08261719 -81.0078125 20.890625 C-81.50269165 19.2960144 -81.50269165 19.2960144 -82.00756836 17.66918945 C-82.76602932 15.02647822 -83.3637482 12.41821408 -83.85546875 9.71484375 C-79.85546875 14.71484375 -79.85546875 14.71484375 -78.23046875 17.15234375 C-72.96808942 22.83017408 -65.03095493 27.32153399 -57.2890625 28.05078125 C-47.34663966 28.14797013 -38.3951436 27.40796031 -29.85546875 21.71484375 C-30.45230469 21.93140625 -31.04914063 22.14796875 -31.6640625 22.37109375 C-44.06284909 26.35049628 -58.02751027 26.60269348 -69.85546875 20.71484375 C-76.34694163 16.88933454 -81.39873684 12.00032458 -83.85546875 4.71484375 C-83.52546875 3.72484375 -83.19546875 2.73484375 -82.85546875 1.71484375 C-82.57574219 2.29492188 -82.29601562 2.875 -82.0078125 3.47265625 C-77.32076512 12.60561675 -71.48056031 17.24554088 -61.85546875 20.71484375 C-52.39941521 23.40028942 -38.72228347 23.17138193 -29.85546875 18.71484375 C-27.13816734 16.99062803 -24.54537609 15.18677967 -21.984375 13.23828125 C-19.85546875 11.71484375 -19.85546875 11.71484375 -16.85546875 10.71484375 C-16.85546875 10.05484375 -16.85546875 9.39484375 -16.85546875 8.71484375 C-12.13259272 3.80463026 -7.13375653 -0.71212631 0 0 Z " fill="#393939" transform="translate(258.85546875,269.28515625)"/>
<path d="M0 0 C6.51086507 0 11.02240867 0.78818315 17.125 2.5625 C18.05280273 2.8320752 18.98060547 3.10165039 19.93652344 3.37939453 C36.34193015 8.35583447 48.77189679 16.65801589 57 32 C62.45063141 43.37819306 65.63152291 57.04270087 61.984375 69.45703125 C61.65953125 70.29621094 61.3346875 71.13539063 61 72 C57.14814625 72.30409372 54.31459109 71.81359499 50.75 70.5 C39.03349126 66.80098138 26.11981296 68.11600372 15 73 C16.96671729 73.08401848 16.96671729 73.08401848 18.6796875 72.5625 C31.08408605 69.38414877 47.55930194 68.69733999 59 75 C67.24441299 80.46486804 72.23077129 87.50550157 75 97 C75.41743345 101.06543881 75.39544226 104.93573235 75 109 C74.360625 108.319375 73.72125 107.63875 73.0625 106.9375 C62.48787312 96.51056344 50.98227374 90.89322346 36 90.8125 C23.58646918 90.90995657 11.20829425 92.39585288 0 98 C0 65.66 0 33.32 0 0 Z " fill="#6D6D6D" transform="translate(268,140)"/>
<path d="M0 0 C0 32.34 0 64.68 0 98 C-4.62 96.35 -9.24 94.7 -14 93 C-31.8993293 89.51957486 -48.81761885 88.64408953 -64.44140625 99.015625 C-67.67271746 101.52174118 -70.22305049 104.30035312 -72.7578125 107.49609375 C-73.37269531 108.24052734 -73.37269531 108.24052734 -74 109 C-74.33 109 -74.66 109 -75 109 C-75.48931823 100.96702571 -75.0458642 95.0240698 -71 88 C-70.4225 86.96875 -69.845 85.9375 -69.25 84.875 C-63.31441161 77.29063706 -56.61150729 72.49806941 -47 71 C-44.12397322 70.83382793 -41.2553693 70.80979825 -38.375 70.8125 C-37.57682861 70.81258057 -36.77865723 70.81266113 -35.95629883 70.81274414 C-29.79435812 70.8719636 -24.00237642 71.57974858 -18 73 C-16.33423541 73.3378124 -14.66779232 73.67234522 -13 74 C-14.58199631 73.35089846 -16.16565724 72.70585306 -17.75 72.0625 C-19.07257813 71.52302734 -19.07257813 71.52302734 -20.421875 70.97265625 C-30.56584863 67.14561165 -43.59682638 67.81628744 -53.73828125 71.34375 C-56.25127058 72.07290753 -58.39679595 72.11057858 -61 72 C-65.84871482 59.25757745 -62.951532 45.05322172 -57.64453125 32.89453125 C-50.14717643 18.32192469 -38.22308585 9.65568607 -23 4 C-15.37250624 1.70132705 -7.9997267 0 0 0 Z " fill="#BBBBBB" transform="translate(245,140)"/>
<path d="M0 0 C11.44734636 1.14473464 19.37964115 3.35254931 27 12 C31.1101714 17.84602049 32.55563137 23.16107225 32.56640625 30.26171875 C31.19742262 36.88004651 26.96223694 41.40793426 22.375 46.0625 C14.19125201 54.65366947 6.80549212 64.07842699 2 75 C3.30710937 74.49339844 3.30710937 74.49339844 4.640625 73.9765625 C18.05989044 68.95159947 32.94396182 65.02632495 47 70 C57.27513324 74.72880547 64.82601397 82.4742961 69 93 C68.505 94.485 68.505 94.485 68 96 C67.05125 95.0925 66.1025 94.185 65.125 93.25 C55.91142274 85.31243751 45.15536423 84.77764669 33.5625 84.6875 C32.35400391 84.65849609 31.14550781 84.62949219 29.90039062 84.59960938 C18.74884095 84.52196066 9.94408773 87.02795613 0 92 C0 61.64 0 31.28 0 0 Z " fill="#949494" transform="translate(271,144)"/>
<path d="M0 0 C0 17.82 0 35.64 0 54 C-0.33 54 -0.66 54 -1 54 C-1.94221274 48.48844786 -2.10403602 43.22026052 -2.02734375 37.63671875 C-2.01471243 35.84570495 -2.0023504 34.05468923 -1.99023438 32.26367188 C-1.96530196 29.4611199 -1.93715941 26.65866896 -1.90405273 23.85620117 C-1.87398105 21.13720022 -1.85613059 18.41833211 -1.83984375 15.69921875 C-1.82638412 14.85654953 -1.8129245 14.01388031 -1.79905701 13.14567566 C-1.79015669 11.0960417 -1.8859039 9.04647518 -2 7 C-3.96230213 4.6261733 -3.96230213 4.6261733 -7.625 4.5625 C-19.52613995 4.85136262 -31.71789076 9.92877428 -40.2109375 18.13671875 C-46.32922174 24.6415372 -49.55480288 30.3621402 -49.3046875 39.421875 C-48.82213699 43.50499473 -47.54028337 47.2043017 -46 51 C-46.7940625 51.58007812 -47.588125 52.16015625 -48.40625 52.7578125 C-49.93765625 53.92957031 -49.93765625 53.92957031 -51.5 55.125 C-52.5209375 55.89070313 -53.541875 56.65640625 -54.59375 57.4453125 C-57.31916091 59.82132327 -57.31916091 59.82132327 -57.34375 63.3046875 C-57.17359375 64.63886719 -57.17359375 64.63886719 -57 66 C-56.28199219 65.9278125 -55.56398437 65.855625 -54.82421875 65.78125 C-51.21911424 65.45800277 -47.61287224 65.21365548 -44 65 C-43.26652344 64.95246582 -42.53304687 64.90493164 -41.77734375 64.85595703 C-28.02874839 64.06209778 -17.09604236 66.11604684 -5.171875 73.265625 C-3.60179687 74.12414062 -3.60179687 74.12414062 -2 75 C-1.34 74.67 -0.68 74.34 0 74 C0 81.92 0 89.84 0 98 C-3.031875 96.824375 -3.031875 96.824375 -6.125 95.625 C-19.99524015 90.56546665 -39.39807819 87.6203685 -53.703125 92.8984375 C-61.34881995 96.56525038 -67.47108094 100.83076473 -72.7578125 107.49609375 C-73.37269531 108.24052734 -73.37269531 108.24052734 -74 109 C-74.33 109 -74.66 109 -75 109 C-75.48931823 100.96702571 -75.0458642 95.0240698 -71 88 C-70.4225 86.96875 -69.845 85.9375 -69.25 84.875 C-63.31441161 77.29063706 -56.61150729 72.49806941 -47 71 C-44.12397322 70.83382793 -41.2553693 70.80979825 -38.375 70.8125 C-37.57682861 70.81258057 -36.77865723 70.81266113 -35.95629883 70.81274414 C-29.79435812 70.8719636 -24.00237642 71.57974858 -18 73 C-16.33423541 73.3378124 -14.66779232 73.67234522 -13 74 C-14.58199631 73.35089846 -16.16565724 72.70585306 -17.75 72.0625 C-19.07257813 71.52302734 -19.07257813 71.52302734 -20.421875 70.97265625 C-30.56584863 67.14561165 -43.59682638 67.81628744 -53.73828125 71.34375 C-56.25127058 72.07290753 -58.39679595 72.11057858 -61 72 C-65.84871482 59.25757745 -62.951532 45.05322172 -57.64453125 32.89453125 C-50.14717643 18.32192469 -38.22308585 9.65568607 -23 4 C-15.37250624 1.70132705 -7.9997267 0 0 0 Z " fill="#6E6E6E" transform="translate(245,140)"/>
<path d="M0 0 C6.05338711 0.64691553 12.01797145 0.75392733 18.1015625 0.73046875 C19.10445313 0.73433594 20.10734375 0.73820312 21.140625 0.7421875 C27.84505965 0.73352544 34.43657152 0.3254321 41.1015625 -0.39453125 C41.5140625 0.73984375 41.9265625 1.87421875 42.3515625 3.04296875 C43.66841648 6.70090259 43.66841648 6.70090259 46.2890625 7.54296875 C46.8871875 7.56359375 47.4853125 7.58421875 48.1015625 7.60546875 C50.08752745 15.86881385 48.17989065 25.75262703 45.1015625 33.60546875 C41.99782082 36.68184058 39.33963434 37.10790507 35.1015625 37.60546875 C33.88597656 37.94449219 32.67039062 38.28351563 31.41796875 38.6328125 C26.54870827 39.87445675 21.79525062 39.98951662 16.7890625 39.98046875 C15.85626465 39.97885742 14.9234668 39.97724609 13.96240234 39.97558594 C8.05837926 39.8703596 3.23273265 39.21794264 -2.1953125 36.7578125 C-6.34333744 34.98950707 -10.67299766 34.00686015 -15.03857422 32.91308594 C-19.80439018 31.69951607 -19.80439018 31.69951607 -20.8984375 30.60546875 C-20.84780786 24.70711542 -19.47129242 19.86304184 -16.8984375 14.60546875 C-15.5784375 14.60546875 -14.2584375 14.60546875 -12.8984375 14.60546875 C-13.1665625 13.90421875 -13.4346875 13.20296875 -13.7109375 12.48046875 C-13.8984375 9.60546875 -13.8984375 9.60546875 -11.7109375 6.54296875 C-10.77419864 5.5630739 -9.8367384 4.58386797 -8.8984375 3.60546875 C-8.0940625 2.39890625 -8.0940625 2.39890625 -7.2734375 1.16796875 C-4.34475762 -0.75879433 -3.41137872 -0.4232395 0 0 Z " fill="#1C1C1C" transform="translate(238.8984375,400.39453125)"/>
<path d="M0 0 C0.33 0 0.66 0 1 0 C1.12375 1.134375 1.2475 2.26875 1.375 3.4375 C1.58125 4.613125 1.7875 5.78875 2 7 C5.28144519 8.64072259 8.89789996 8.14274434 12.5 8.125 C13.28503906 8.12886719 14.07007813 8.13273437 14.87890625 8.13671875 C19.07270323 8.23807619 19.07270323 8.23807619 23 7 C23.65555119 4.47266765 23.65555119 4.47266765 24 2 C24.33 2 24.66 2 25 2 C25.05027344 3.13566406 25.10054688 4.27132813 25.15234375 5.44140625 C25.8442992 10.85480042 28.49849935 14.53330825 31.5625 18.9375 C32.73824556 20.68664942 33.91265879 22.43669493 35.0859375 24.1875 C36.02904785 25.58162109 36.02904785 25.58162109 36.99121094 27.00390625 C40.63157568 32.43348284 44.15712578 37.93614379 47.6875 43.4375 C48.38238525 44.5092749 49.07727051 45.5810498 49.79321289 46.68530273 C50.44281982 47.69536377 51.09242676 48.7054248 51.76171875 49.74609375 C52.33881592 50.63997803 52.91591309 51.5338623 53.51049805 52.45483398 C54.94985844 54.9143213 56.0189336 57.32886879 57 60 C55.125 59.75 55.125 59.75 53 59 C52.7009375 58.3915625 52.401875 57.783125 52.09375 57.15625 C50.84710716 54.69858268 49.50001462 53.48149339 47.375 51.75 C46.74335938 51.22921875 46.11171875 50.7084375 45.4609375 50.171875 C44.97882813 49.78515625 44.49671875 49.3984375 44 49 C44.495 51.97 44.495 51.97 45 55 C42.69 55 40.38 55 38 55 C37.99613281 53.87851562 37.99613281 53.87851562 37.9921875 52.734375 C37.95351563 51.74953125 37.91484375 50.7646875 37.875 49.75 C37.85179687 48.77546875 37.82859375 47.8009375 37.8046875 46.796875 C37.07128673 43.114063 37.07128673 43.114063 31 40 C31 44.95 31 49.9 31 55 C28.36 55 25.72 55 23 55 C23 48.4 23 41.8 23 35 C20.69 34.67 18.38 34.34 16 34 C16 40.93 16 47.86 16 55 C13.69 55 11.38 55 9 55 C9 48.07 9 41.14 9 34 C5.535 34.495 5.535 34.495 2 35 C2 41.6 2 48.2 2 55 C-0.64 55 -3.28 55 -6 55 C-6 50.05 -6 45.1 -6 40 C-12.07128673 43.114063 -12.07128673 43.114063 -12.8046875 46.796875 C-12.82789063 47.77140625 -12.85109375 48.7459375 -12.875 49.75 C-12.91367188 50.73484375 -12.95234375 51.7196875 -12.9921875 52.734375 C-12.99476563 53.48203125 -12.99734375 54.2296875 -13 55 C-15.31 55 -17.62 55 -20 55 C-19.505 52.03 -19.505 52.03 -19 49 C-23.24069422 52.38093704 -26.22942849 55.29002843 -29 60 C-29.99 60 -30.98 60 -32 60 C-30.52233394 54.44782278 -27.78304309 50.34822622 -24.5625 45.6875 C-23.47679163 44.08927002 -22.39218261 42.49029275 -21.30859375 40.890625 C-20.75800293 40.08044922 -20.20741211 39.27027344 -19.64013672 38.43554688 C-16.60553768 33.92927119 -13.67113284 29.35817707 -10.74682617 24.77978516 C-8.39803827 21.11226559 -5.95948487 17.57001518 -3.375 14.0625 C-0.36797277 9.65564976 -0.02188848 5.24229156 0 0 Z " fill="#202020" transform="translate(244,297)"/>
<path d="M0 0 C1.37376679 0.00398964 2.74753489 0.01873698 4.12109375 0.04296875 C4.81912109 0.04361328 5.51714844 0.04425781 6.23632812 0.04492188 C11.41828217 0.09015717 11.41828217 0.09015717 12.55859375 1.23046875 C12.65395617 4.39659538 12.68410011 7.54087503 12.67211914 10.70727539 C12.67226517 11.70228561 12.67241119 12.69729584 12.67256165 13.72245789 C12.67186206 17.02853537 12.66406754 20.33455729 12.65625 23.640625 C12.65438598 25.92606068 12.652962 28.21149676 12.65196228 30.49693298 C12.64813582 36.52545262 12.63830445 42.55394834 12.6272583 48.5824585 C12.61704692 54.72879716 12.61246525 60.87513968 12.60742188 67.02148438 C12.59668229 79.09115637 12.57960435 91.16081057 12.55859375 103.23046875 C6.61859375 103.56046875 0.67859375 103.89046875 -5.44140625 104.23046875 C-5.4876682 90.96587666 -5.52324413 77.70130363 -5.54503059 64.43664742 C-5.55548495 58.27788578 -5.56967422 52.11917918 -5.59228516 45.96044922 C-5.61395471 40.02122326 -5.62596242 34.08205036 -5.63116074 28.14278793 C-5.63486711 25.87248778 -5.6421043 23.60219066 -5.65286636 21.33191299 C-5.66730302 18.16147751 -5.66938748 14.99126364 -5.66845703 11.82080078 C-5.67564758 10.874216 -5.68283813 9.92763123 -5.69024658 8.95236206 C-5.68749725 8.09136902 -5.68474792 7.23037598 -5.68191528 6.34329224 C-5.68375887 5.59295275 -5.68560246 4.84261326 -5.68750191 4.06953621 C-5.19021492 0.35332143 -3.4658783 0.23210763 0 0 Z " fill="#7E7E7E" transform="translate(252.44140625,134.76953125)"/>
<path d="M0 0 C7.20074669 4.92649784 13.82424876 10.94976881 17.68823242 18.9050293 C17.68823242 19.8950293 17.68823242 20.8850293 17.68823242 21.9050293 C18.34823242 21.9050293 19.00823242 21.9050293 19.68823242 21.9050293 C22.54092428 30.49053461 25.03264228 39.12154731 27.29101562 47.8815918 C34.29887393 74.97888159 42.93659283 101.47952428 53.50854492 127.3972168 C55.18342842 131.52674283 56.59330947 135.58685001 57.68823242 139.9050293 C42.15821707 132.96536951 34.39989108 107.61272743 28.68823242 92.9050293 C24.47977481 81.6742912 20.52995827 70.34787591 16.67651367 58.9909668 C16.3692334 58.0925708 16.06195313 57.1941748 15.74536133 56.26855469 C15.1911963 54.64293133 14.64448158 53.0147355 14.10766602 51.38330078 C10.24140312 40.019402 3.7330479 28.74860808 -7.18676758 22.9675293 C-8.87734223 22.23744959 -10.58656714 21.54903432 -12.31176758 20.9050293 C-13.13032227 20.58791992 -13.94887695 20.27081055 -14.79223633 19.9440918 C-29.12818579 15.21604795 -45.3106794 17.39893386 -59.07739258 23.0378418 C-61.31176758 23.9050293 -61.31176758 23.9050293 -64.31176758 23.9050293 C-64.31176758 23.2450293 -64.31176758 22.5850293 -64.31176758 21.9050293 C-47.63964596 14.29384334 -27.8848745 11.59998085 -10.31176758 17.9050293 C-2.83892624 21.14326054 4.13893598 26.08108463 8.68823242 32.9050293 C9.94424524 23.13604068 6.84760605 15.93510603 1.68823242 7.9050293 C-3.46188783 1.39845339 -10.24606555 -1.6519058 -18.31176758 -3.0949707 C-28.73729923 -4.03890097 -38.81116105 -3.59904934 -48.87817383 -0.65356445 C-51.31176758 -0.0949707 -51.31176758 -0.0949707 -54.31176758 -1.0949707 C-52.39660968 -1.91102069 -50.47957924 -2.72267702 -48.56176758 -3.5324707 C-47.49442383 -3.98493164 -46.42708008 -4.43739258 -45.32739258 -4.90356445 C-31.39678615 -10.40723668 -12.46254873 -7.93771721 0 0 Z " fill="#414141" transform="translate(333.311767578125,215.094970703125)"/>
<path d="M0 0 C12.44462293 6.98490381 20.25764663 18.82688132 24.3828125 32.23828125 C26.26576129 39.04346131 27 44.83581757 27 52 C9.18 52 -8.64 52 -27 52 C-23.62787619 49.75191746 -20.7125039 48.94839557 -16.8125 47.875 C-16.15830078 47.69324219 -15.50410156 47.51148438 -14.83007812 47.32421875 C-13.22137657 46.87800956 -11.61085869 46.43835785 -10 46 C-9.29688401 42.60720768 -8.61529709 39.21043326 -7.9375 35.8125 C-7.73833984 34.85279297 -7.53917969 33.89308594 -7.33398438 32.90429688 C-7.15029297 31.97294922 -6.96660156 31.04160156 -6.77734375 30.08203125 C-6.60452881 29.22843018 -6.43171387 28.3748291 -6.25366211 27.49536133 C-5.97686124 24.77237609 -6.33581917 22.64223961 -7 20 C-8.32 19.67 -9.64 19.34 -11 19 C-11.4021875 17.2984375 -11.4021875 17.2984375 -11.8125 15.5625 C-12.204375 14.386875 -12.59625 13.21125 -13 12 C-13.99 11.67 -14.98 11.34 -16 11 C-15.20335937 10.80664062 -14.40671875 10.61328125 -13.5859375 10.4140625 C-5.7134296 8.48205464 -5.7134296 8.48205464 2 6 C2 4.68 2 3.36 2 2 C1.34 2 0.68 2 0 2 C0 1.34 0 0.68 0 0 Z " fill="#1F1F1F" transform="translate(293,388)"/>
<path d="M0 0 C0.33 0.99 0.66 1.98 1 3 C0.34 3 -0.32 3 -1 3 C3.3713263 8.51167229 10.30969786 9.92091901 17 11 C15.625 12.5 15.625 12.5 14 14 C13.34 14 12.68 14 12 14 C11.34 15.98 10.68 17.96 10 20 C9.34 20 8.68 20 8 20 C7.67 22.31 7.34 24.62 7 27 C5.68 27 4.36 27 3 27 C2.48930733 28.5381577 1.99197253 30.08075289 1.5 31.625 C1.2215625 32.48351562 0.943125 33.34203125 0.65625 34.2265625 C-0.05611673 37.23716001 -0.10848596 39.91719068 0 43 C1.12277344 43.32613281 2.24554688 43.65226562 3.40234375 43.98828125 C10.98147446 46.19833242 18.53602035 48.4215343 26 51 C26 51.33 26 51.66 26 52 C8.84 52 -8.32 52 -26 52 C-26 34.55430864 -20.23702862 19.80292906 -8.15625 7.1015625 C-5.54473289 4.55627952 -2.88995844 2.22304495 0 0 Z " fill="#1C1C1C" transform="translate(219,388)"/>
<path d="M0 0 C19.86682843 0.38006107 39.15867033 7.65079683 54 21 C54.89332031 21.80050781 55.78664063 22.60101563 56.70703125 23.42578125 C73.48435033 39.28505278 84.21235418 63.83706751 85.07617188 87.04663086 C85.09759956 89.17795529 85.08784892 91.30624101 85.0625 93.4375 C85.05798828 94.16904297 85.05347656 94.90058594 85.04882812 95.65429688 C85.03718148 97.43623419 85.01925191 99.21812863 85 101 C84.34 100.01 83.68 99.02 83 98 C78.36763562 91.07320162 74.05066629 85.51184613 67 81 C66.39414062 80.58878906 65.78828125 80.17757812 65.1640625 79.75390625 C63.78694293 78.81966316 62.39526401 77.90692161 61 77 C61.32226562 75.989375 61.64453125 74.97875 61.9765625 73.9375 C65.73537918 60.6851764 62.32700151 45.94701343 56.125 34 C46.21571855 17.3366312 30.36455813 10.86594501 12.33203125 6.015625 C8.23970178 4.98399191 4.19541254 4.43712113 0 4 C0 2.68 0 1.36 0 0 Z " fill="#202020" transform="translate(267,136)"/>
<path d="M0 0 C0 1.32 0 2.64 0 4 C-0.57331055 4.09498779 -1.14662109 4.18997559 -1.73730469 4.2878418 C-19.81836987 7.34305588 -40.20061045 11.85802207 -51.84375 27.47265625 C-60.72233659 40.84696782 -64.16746869 53.96447419 -63 70 C-62.45150609 72.39185004 -61.75747931 74.66143293 -61 77 C-61.845625 77.53367187 -62.69125 78.06734375 -63.5625 78.6171875 C-72.50629383 84.42755304 -80.26090644 90.61158241 -84 101 C-84.33 101 -84.66 101 -85 101 C-86.40851334 73.33836304 -78.13920491 47.05622123 -59.56640625 26.27734375 C-44.55976325 10.44304845 -22.0790465 -0.44158093 0 0 Z " fill="#202020" transform="translate(246,136)"/>
<path d="M0 0 C4.99957942 3.49126749 4.99957942 3.49126749 6.375 6.5 C6.60030013 9.21932013 6.51194602 11.76107953 6.375 14.5 C5.63636719 14.30664062 4.89773437 14.11328125 4.13671875 13.9140625 C2.61498047 13.52347656 2.61498047 13.52347656 1.0625 13.125 C0.07636719 12.86976563 -0.90976563 12.61453125 -1.92578125 12.3515625 C-11.10826044 10.23774997 -19.75151438 9.15867903 -29.1875 9.1875 C-30.77594727 9.16333008 -30.77594727 9.16333008 -32.39648438 9.13867188 C-43.31658019 9.13194354 -52.09570066 11.52306803 -60.625 18.5 C-62.00526867 20.1280092 -63.36061678 21.78043882 -64.625 23.5 C-65.285 23.5 -65.945 23.5 -66.625 23.5 C-66.05506918 14.76106083 -62.13920718 7.00043326 -55.72265625 1.03515625 C-40.06997596 -10.42015726 -16.30906543 -9.49158223 0 0 Z " fill="#9D9D9D" transform="translate(237.625,219.5)"/>
<path d="M0 0 C5.33299673 4.96583689 9.3109097 10.21881577 12 17 C11.505 18.485 11.505 18.485 11 20 C10.05125 19.0925 9.1025 18.185 8.125 17.25 C-1.08857726 9.31243751 -11.84463577 8.77764669 -23.4375 8.6875 C-24.64599609 8.65849609 -25.85449219 8.62949219 -27.09960938 8.59960938 C-38.25115905 8.52196066 -47.05591227 11.02795613 -57 16 C-57 10.72 -57 5.44 -57 0 C-37.97889284 -7.54285284 -17.83365466 -13.46857332 0 0 Z " fill="#9D9D9D" transform="translate(328,220)"/>
<path d="M0 0 C0.99 0.33 1.98 0.66 3 1 C4.98596495 9.2633451 3.07832815 19.14715828 0 27 C-3.08105952 30.05388968 -5.77649475 30.53000628 -10 31 C-11.2375 31.4125 -12.475 31.825 -13.75 32.25 C-19.69107895 33.64934504 -25.95179169 33.1163117 -32 33 C-32.66 24.09 -33.32 15.18 -34 6 C-26.125 3.75 -26.125 3.75 -21 6 C-21 8.64 -21 11.28 -21 14 C-16.71 13.34 -12.42 12.68 -8 12 C-8.04125 10.72125 -8.0825 9.4425 -8.125 8.125 C-8.1953125 5.9453125 -8.1953125 5.9453125 -8 4 C-5.62596029 1.62596029 -4.22523111 1.57888764 -1 1 C-0.67 0.67 -0.34 0.34 0 0 Z " fill="#424242" transform="translate(284,407)"/>
<path d="M0 0 C0 6.93 0 13.86 0 21 C2.31 21 4.62 21 7 21 C7 14.07 7 7.14 7 0 C9.31 0.33 11.62 0.66 14 1 C14 7.6 14 14.2 14 21 C16.64 21 19.28 21 22 21 C22 16.05 22 11.1 22 6 C27 8 27 8 29 10 C29.1953125 12.6015625 29.1953125 12.6015625 29.125 15.625 C29.10695313 16.62789063 29.08890625 17.63078125 29.0703125 18.6640625 C29.04710937 19.43492187 29.02390625 20.20578125 29 21 C31.31 21 33.62 21 36 21 C35.01 17.535 35.01 17.535 34 14 C35.2989839 14.90626784 36.58893167 15.82549537 37.875 16.75 C38.59429687 17.26046875 39.31359375 17.7709375 40.0546875 18.296875 C42 20 42 20 44 24 C17.27 24 -9.46 24 -37 24 C-35.06604999 20.13209997 -34.2196994 19.12365764 -30.875 16.75 C-30.15054688 16.22921875 -29.42609375 15.7084375 -28.6796875 15.171875 C-28.12539062 14.78515625 -27.57109375 14.3984375 -27 14 C-27.66 16.31 -28.32 18.62 -29 21 C-26.69 21 -24.38 21 -22 21 C-22.05800781 20.25234375 -22.11601562 19.5046875 -22.17578125 18.734375 C-22.5475325 10.61957625 -22.5475325 10.61957625 -19.625 7.3125 C-17 6 -17 6 -15 6 C-15 10.95 -15 15.9 -15 21 C-12.36 21 -9.72 21 -7 21 C-7 14.4 -7 7.8 -7 1 C-5 0 -5 0 0 0 Z " fill="#414141" transform="translate(253,331)"/>
<path d="M0 0 C1.72225991 2.23893788 3.25445765 4.43352045 4.6875 6.875 C9.9558544 13.99439783 17.36680834 18.20437729 26 20 C36.32150554 21.04347698 46.57895766 20.71052117 56 16 C58.3329866 15.95977609 60.66706666 15.95679753 63 16 C53.10345426 26.47869549 42.95854784 28.36552055 29 29 C46.50259559 29.9572484 46.50259559 29.9572484 63 25 C63.99 24.67 64.98 24.34 66 24 C66 26.31 66 28.62 66 31 C64.50557373 31.15033691 64.50557373 31.15033691 62.98095703 31.30371094 C38.77554496 33.56628152 38.77554496 33.56628152 14.96484375 38.265625 C12 39 12 39 9 39 C7.68344568 34.77208465 6.37246664 30.54246066 5.0625 26.3125 C4.68931641 25.11431641 4.31613281 23.91613281 3.93164062 22.68164062 C3.57392578 21.52470703 3.21621094 20.36777344 2.84765625 19.17578125 C2.3527771 17.58117065 2.3527771 17.58117065 1.84790039 15.9543457 C1.08943943 13.31163447 0.49172055 10.70337033 0 8 C4 13 4 13 5.625 15.4375 C10.88737933 21.11533033 18.82451382 25.60669024 26.56640625 26.3359375 C36.50882909 26.43312638 45.46032515 25.69311656 54 20 C53.40316406 20.2165625 52.80632812 20.433125 52.19140625 20.65625 C39.79261966 24.63565253 25.82795848 24.88784973 14 19 C7.34071071 15.0755944 2.8052411 10.27389151 0 3 C0 2.01 0 1.02 0 0 Z " fill="#404040" transform="translate(175,271)"/>
<path d="M0 0 C0.33 -0.33 0.66 -0.66 1 -1 C3.50421243 -1.10036387 5.98086317 -1.13617707 8.4855957 -1.12939453 C9.26935577 -1.13114685 10.05311584 -1.13289917 10.86062622 -1.13470459 C13.46570007 -1.13912517 16.07070664 -1.13618356 18.67578125 -1.1328125 C20.48080966 -1.13348568 22.28583799 -1.13445583 24.09086609 -1.13571167 C27.8814683 -1.13718909 31.672047 -1.13503344 35.46264648 -1.13037109 C40.32179045 -1.12468598 45.18087903 -1.12794479 50.04002094 -1.13394356 C53.77091386 -1.13755841 57.50179368 -1.13640611 61.232687 -1.13381577 C63.02404983 -1.13314842 64.81541384 -1.1339682 66.60677528 -1.13629532 C69.11328907 -1.13883561 71.61971356 -1.13496121 74.1262207 -1.12939453 C75.23840721 -1.13243088 75.23840721 -1.13243088 76.37306213 -1.13552856 C79.75642473 -1.12161303 82.74118602 -0.88472133 86 0 C86.845625 -0.20625 87.69125 -0.4125 88.5625 -0.625 C91 -1 91 -1 92.8125 0.125 C94.37509409 2.59225382 94.36796448 4.12987704 94 7 C92 9 92 9 89 9.25 C86 9 86 9 84 7 C84 6.01 84 5.02 84 4 C55.95 4 27.9 4 -1 4 C-1.33 5.32 -1.66 6.64 -2 8 C-3 9 -3 9 -5.9375 9.1875 C-9 9 -9 9 -11 7 C-11.35435046 4.23606641 -11.31890064 2.5979387 -10 0.125 C-6.70473448 -1.72858686 -3.66165487 -0.5905895 0 0 Z " fill="#737373" transform="translate(215,356)"/>
<path d="M0 0 C1.27196623 3.81589869 0.48774568 5.18759553 -0.8359375 8.9453125 C-1.24070312 10.10417969 -1.64546875 11.26304687 -2.0625 12.45703125 C-2.495625 13.66746094 -2.92875 14.87789063 -3.375 16.125 C-3.80039062 17.34316406 -4.22578125 18.56132812 -4.6640625 19.81640625 C-7.84454335 28.84454335 -7.84454335 28.84454335 -9 30 C-14.59095099 29.79962986 -20.16020047 28.8586855 -25.67285156 27.9465332 C-38.71287156 25.79462894 -51.82133705 24.86603531 -65 24 C-65.33 21.03 -65.66 18.06 -66 15 C-63.56098447 15.95330174 -61.16178282 16.92182355 -58.80322266 18.06152344 C-51.62531833 21.38345199 -45.18814156 21.47646787 -37.375 21.25 C-36.18003906 21.23195313 -34.98507812 21.21390625 -33.75390625 21.1953125 C-30.83507473 21.1486112 -27.91798239 21.0831334 -25 21 C-26.52367187 20.94392578 -26.52367187 20.94392578 -28.078125 20.88671875 C-41.242925 20.30386445 -53.99104196 19.2909636 -63.6640625 9.27734375 C-64.83215912 7.89716255 -65.92623526 6.45477803 -67 5 C-65.33333333 5.66666667 -63.66666667 6.33333333 -62 7 C-60.700625 7.4640625 -60.700625 7.4640625 -59.375 7.9375 C-57 9 -57 9 -55.68359375 10.40234375 C-53.54530081 12.43148949 -51.37114963 13.41494498 -48.6875 14.625 C-47.76324219 15.05039062 -46.83898437 15.47578125 -45.88671875 15.9140625 C-36.18848892 19.56238171 -25.00593232 19.21353223 -15.50390625 15.2578125 C-8.19791465 11.58772 -3.81305794 7.22281168 0 0 Z " fill="#404040" transform="translate(337,279)"/>
<path d="M0 0 C2.31 0 4.62 0 7 0 C3.26413904 7.29832752 -0.95857123 14.15394388 -5.45800781 20.99755859 C-8.22009928 25.2114709 -10.91024576 29.45833244 -13.53125 33.76171875 C-14.11898193 34.7254541 -14.70671387 35.68918945 -15.31225586 36.68212891 C-16.46741652 38.58317306 -17.6167998 40.4877414 -18.76000977 42.39599609 C-19.28393311 43.25660645 -19.80785645 44.1172168 -20.34765625 45.00390625 C-20.81179932 45.77549072 -21.27594238 46.5470752 -21.75415039 47.34204102 C-22.16528076 47.88916748 -22.57641113 48.43629395 -23 49 C-23.66 49 -24.32 49 -25 49 C-26.76171875 46.76953125 -26.76171875 46.76953125 -28.6875 43.8125 C-29.65236328 42.36810547 -29.65236328 42.36810547 -30.63671875 40.89453125 C-32 38 -32 38 -31.96484375 35.47265625 C-26.32282359 21.01355195 -9.37025479 10.14267886 3 2 C2.01 1.34 1.02 0.68 0 0 Z " fill="#1F1F1F" transform="translate(234,302)"/>
<path d="M0 0 C0.061875 0.928125 0.12375 1.85625 0.1875 2.8125 C0.63952697 6.15431635 0.63952697 6.15431635 3.3125 7.375 C7.12129571 9.67799275 8.44644139 12.91214467 10 17 C10 17.66 10 18.32 10 19 C9.175 18.835 8.35 18.67 7.5 18.5 C-0.58496425 17.26257839 -0.58496425 17.26257839 -8 20 C-8.38671875 20.44472656 -8.7734375 20.88945312 -9.171875 21.34765625 C-11.77834093 23.70350046 -14.80564143 25.09947137 -17.9375 26.625 C-18.55818359 26.93695313 -19.17886719 27.24890625 -19.81835938 27.5703125 C-26.92395812 31.08149229 -32.67330374 31.18267466 -40.5 31.1875 C-41.54542969 31.19974609 -42.59085938 31.21199219 -43.66796875 31.22460938 C-45.17810547 31.22750977 -45.17810547 31.22750977 -46.71875 31.23046875 C-47.63591797 31.23457764 -48.55308594 31.23868652 -49.49804688 31.24291992 C-52.11817127 30.9885265 -53.74956344 30.32821818 -56 29 C-54.36804688 28.96132813 -54.36804688 28.96132813 -52.703125 28.921875 C-39.82627126 28.48240699 -28.99317749 26.81750955 -19 18 C-20.98 18 -22.96 18 -25 18 C-22.17589976 15.07130346 -19.27847819 12.41572077 -16 10 C-15.34 10 -14.68 10 -14 10 C-14 9.34 -14 8.68 -14 8 C-11.953125 6.0546875 -11.953125 6.0546875 -9.25 3.875 C-8.36828125 3.15054687 -7.4865625 2.42609375 -6.578125 1.6796875 C-4 0 -4 0 0 0 Z " fill="#626262" transform="translate(256,270)"/>
<path d="M0 0 C1.38294718 0.01329757 2.76582404 0.03715018 4.1484375 0.0703125 C4.85484375 0.07933594 5.56125 0.08835938 6.2890625 0.09765625 C8.03399848 0.12123647 9.77876045 0.15710789 11.5234375 0.1953125 C11.8534375 0.8553125 12.1834375 1.5153125 12.5234375 2.1953125 C6.0884375 2.6903125 6.0884375 2.6903125 -0.4765625 3.1953125 C-0.8065625 36.5253125 -1.1365625 69.8553125 -1.4765625 104.1953125 C-2.7965625 104.1953125 -4.1165625 104.1953125 -5.4765625 104.1953125 C-5.52282445 90.93072041 -5.55840038 77.66614738 -5.58018684 64.40149117 C-5.5906412 58.24272953 -5.60483047 52.08402293 -5.62744141 45.92529297 C-5.64911096 39.98606701 -5.66111867 34.04689411 -5.66631699 28.10763168 C-5.67002336 25.83733153 -5.67726055 23.56703441 -5.68802261 21.29675674 C-5.70245927 18.12632126 -5.70454373 14.95610739 -5.70361328 11.78564453 C-5.71080383 10.83905975 -5.71799438 9.89247498 -5.72540283 8.91720581 C-5.7226535 8.05621277 -5.71990417 7.19521973 -5.71707153 6.30813599 C-5.71891512 5.5577965 -5.72075871 4.80745701 -5.72265816 4.03437996 C-5.22168339 0.29060649 -3.49016689 0.19607679 0 0 Z " fill="#909090" transform="translate(252.4765625,134.8046875)"/>
<path d="M0 0 C0.53625 0.33 1.0725 0.66 1.625 1 C4.53741558 2.22628024 6.86764377 2.06865438 10 2 C12.29612756 20.82004556 12.29612756 20.82004556 12 30 C-6.31168831 26.68831169 -6.31168831 26.68831169 -9 24 C-8.94937036 18.10164667 -7.57285492 13.25757309 -5 8 C-3.68 8 -2.36 8 -1 8 C-1.309375 6.8553125 -1.309375 6.8553125 -1.625 5.6875 C-2 3 -2 3 0 0 Z " fill="#404040" transform="translate(227,407)"/>
<path d="M0 0 C3.98095943 -0.08470126 6.04773886 0.17950932 9.1171875 2.82421875 C10.62162569 4.40093422 12.11731601 5.98602973 13.60546875 7.578125 C22.23337319 16.30455364 32.09961965 21.07315727 44.33447266 21.18945312 C45.11097168 21.18880859 45.8874707 21.18816406 46.6875 21.1875 C47.48462402 21.18814453 48.28174805 21.18878906 49.10302734 21.18945312 C54.91267516 21.13746523 60.38562747 20.57992393 66 19 C63.30767526 22.48418496 60.19715032 23.09606368 56 24 C53.05587025 24.28376326 50.1440018 24.33441625 47.1875 24.3125 C46.38997314 24.30686035 45.59244629 24.3012207 44.77075195 24.29541016 C33.62397512 24.06595444 24.9447835 19.8165174 15 15 C25.19441589 25.1451675 34.83452381 27.83667877 48.875 28.5625 C49.65875 28.60568359 50.4425 28.64886719 51.25 28.69335938 C53.16650649 28.79853351 55.08323333 28.89967925 57 29 C56.67 29.66 56.34 30.32 56 31 C51.87524519 31.11751438 47.75092882 31.18768824 43.625 31.25 C42.46871094 31.28351563 41.31242187 31.31703125 40.12109375 31.3515625 C27.35438461 31.4958191 17.87530838 26.81795246 8 19 C8.66 19 9.32 19 10 19 C6.56438273 11.16624846 6.56438273 11.16624846 0 6 C-0.3125 2.8125 -0.3125 2.8125 0 0 Z " fill="#5D5D5D" transform="translate(256,270)"/>
<path d="M0 0 C1.02996094 0.25652344 2.05992187 0.51304687 3.12109375 0.77734375 C8.63966059 2.35118227 13.54408996 3.94023664 17.0859375 8.65234375 C19.10138353 13.82876711 18.40778818 19.55527258 18 25 C16.72769531 24.49339844 16.72769531 24.49339844 15.4296875 23.9765625 C0.28883279 18.21971005 -19.90097804 14.06799017 -35.703125 19.8984375 C-43.34881995 23.56525038 -49.47108094 27.83076473 -54.7578125 34.49609375 C-55.16773438 34.99238281 -55.57765625 35.48867187 -56 36 C-56.33 36 -56.66 36 -57 36 C-57.48931823 27.96702571 -57.0458642 22.0240698 -53 15 C-52.4225 13.96875 -51.845 12.9375 -51.25 11.875 C-38.77023465 -4.07136684 -18.50031384 -4.88318993 0 0 Z M-39 4 C-40.60875 4.86625 -40.60875 4.86625 -42.25 5.75 C-49.08707878 11.34397355 -53.64246335 17.38986616 -56 26 C-56 27.32 -56 28.64 -56 30 C-53.23623876 28.91423666 -52.03089579 28.0415354 -50.23046875 25.62109375 C-47.71555585 22.66574077 -45.54510969 21.41884197 -42.0625 19.75 C-41.04285156 19.24984375 -40.02320313 18.7496875 -38.97265625 18.234375 C-32.4062948 15.50773871 -25.87817376 15.81660022 -18.875 15.8125 C-17.79734375 15.80025391 -16.7196875 15.78800781 -15.609375 15.77539062 C-6.15496928 15.75830435 2.55191084 17.26049457 11.6875 19.625 C13.20923828 20.01558594 13.20923828 20.01558594 14.76171875 20.4140625 C15.50035156 20.60742188 16.23898438 20.80078125 17 21 C17.40482179 16.30406722 17.54377172 13.95628819 15.1875 9.8125 C8.55323162 2.89552132 -2.69633583 0.08251477 -11.98828125 -0.3359375 C-13.7628199 -0.36564794 -15.53771556 -0.37821025 -17.3125 -0.375 C-18.23877197 -0.37338867 -19.16504395 -0.37177734 -20.11938477 -0.37011719 C-27.03576671 -0.24616551 -32.84171758 0.67244777 -39 4 Z " fill="#7D7D7D" transform="translate(227,213)"/>
<path d="M0 0 C6.05150707 5.95390212 10.10896709 13.03678822 10.984375 21.5625 C10.99788332 24.42626446 10.90220041 27.21349583 10.625 30.0625 C9.985625 29.381875 9.34625 28.70125 8.6875 28 C-3.30634974 16.17366212 -15.64438988 11.78737535 -32.34765625 11.90234375 C-41.17307156 12.15571514 -49.88514673 13.68534109 -58.375 16.0625 C-53.84673856 10.62839188 -45.55413459 9.39322864 -38.85009766 8.69580078 C-35.28723388 8.5647586 -31.75206236 8.56471553 -28.1875 8.625 C-26.99447266 8.61791016 -25.80144531 8.61082031 -24.57226562 8.60351562 C-15.4307754 8.66884788 -6.97553582 9.66211488 0.625 15.125 C1.346875 15.63160156 2.06875 16.13820312 2.8125 16.66015625 C4.625 18.0625 4.625 18.0625 6.625 20.0625 C4.42080445 11.46613736 -1.00501015 3.97582657 -8.375 -0.9375 C-21.47582452 -8.08340428 -34.30916719 -6.41479942 -48.375 -2.9375 C-51.1002448 -2.03986744 -53.71282196 -1.01261036 -56.375 0.0625 C-57.365 0.0625 -58.355 0.0625 -59.375 0.0625 C-59.375 -0.5975 -59.375 -1.2575 -59.375 -1.9375 C-40.53548382 -8.60578236 -16.9682064 -13.65488799 0 0 Z " fill="#7D7D7D" transform="translate(332.375,218.9375)"/>
<path d="M0 0 C3.96086075 2.17598454 6.98822036 4.69024054 10.1875 7.875 C11.04730469 8.71804688 11.90710938 9.56109375 12.79296875 10.4296875 C14.93675832 12.92634863 16.00296671 14.89192976 17 18 C14.44560598 19.37174861 11.88335569 20.72225408 9.3125 22.0625 C8.2306543 22.64741211 8.2306543 22.64741211 7.12695312 23.24414062 C1.73813876 26.02467041 1.73813876 26.02467041 -1.921875 25.90234375 C-4.81195403 24.64744101 -5.45977463 22.67865282 -7 20 C-9.08533633 19.12177688 -9.08533633 19.12177688 -11 19 C-11.268125 17.865625 -11.53625 16.73125 -11.8125 15.5625 C-12.204375 14.386875 -12.59625 13.21125 -13 12 C-13.99 11.67 -14.98 11.34 -16 11 C-15.20335937 10.80664062 -14.40671875 10.61328125 -13.5859375 10.4140625 C-5.7134296 8.48205464 -5.7134296 8.48205464 2 6 C2 4.68 2 3.36 2 2 C1.34 2 0.68 2 0 2 C0 1.34 0 0.68 0 0 Z " fill="#171717" transform="translate(293,388)"/>
<path d="M0 0 C0.33 0 0.66 0 1 0 C1.79574792 5.1723615 2.03398004 10.08982833 1.90820312 15.30957031 C1.878172 16.5704245 1.878172 16.5704245 1.84753418 17.85675049 C1.81472351 19.20383087 1.81472351 19.20383087 1.78125 20.578125 C1.75905396 21.5046991 1.73685791 22.43127319 1.71398926 23.38592529 C1.64310679 26.34062781 1.57156181 29.29531386 1.5 32.25 C1.45177923 34.25520728 1.40360163 36.26041561 1.35546875 38.265625 C1.23747982 43.17709552 1.11889677 48.08855138 1 53 C-0.98 53 -2.96 53 -5 53 C-5.02469321 48.7641643 -5.04285671 44.52836658 -5.05493164 40.29248047 C-5.05996474 38.8510668 -5.06679173 37.40965824 -5.07543945 35.96826172 C-5.08754983 33.89809915 -5.09323847 31.82800399 -5.09765625 29.7578125 C-5.10551147 27.88826904 -5.10551147 27.88826904 -5.11352539 25.98095703 C-5 23 -5 23 -4 21 C-10.44161906 30.90335529 -16.82230043 40.84184143 -23.11425781 50.84106445 C-23.5934668 51.60249756 -24.07267578 52.36393066 -24.56640625 53.1484375 C-24.98865479 53.82052246 -25.41090332 54.49260742 -25.84594727 55.18505859 C-26.87545721 56.80413559 -27.93571244 58.40356866 -29 60 C-29.99 60 -30.98 60 -32 60 C-30.52233394 54.44782278 -27.78304309 50.34822622 -24.5625 45.6875 C-23.47679163 44.08927002 -22.39218261 42.49029275 -21.30859375 40.890625 C-20.75800293 40.08044922 -20.20741211 39.27027344 -19.64013672 38.43554688 C-16.60553768 33.92927119 -13.67113284 29.35817707 -10.74682617 24.77978516 C-8.39803827 21.11226559 -5.95948487 17.57001518 -3.375 14.0625 C-0.36797277 9.65564976 -0.02188848 5.24229156 0 0 Z " fill="#000000" transform="translate(244,297)"/>
<path d="M0 0 C0.33 0 0.66 0 1 0 C1.05027344 1.13566406 1.10054688 2.27132813 1.15234375 3.44140625 C1.8442992 8.85480042 4.49849935 12.53330825 7.5625 16.9375 C8.73824556 18.68664942 9.91265879 20.43669493 11.0859375 22.1875 C11.71467773 23.11691406 12.34341797 24.04632813 12.99121094 25.00390625 C16.63157568 30.43348284 20.15712578 35.93614379 23.6875 41.4375 C24.38238525 42.5092749 25.07727051 43.5810498 25.79321289 44.68530273 C26.76762329 46.20039429 26.76762329 46.20039429 27.76171875 47.74609375 C28.33881592 48.63997803 28.91591309 49.5338623 29.51049805 50.45483398 C30.94985844 52.9143213 32.0189336 55.32886879 33 58 C30.58660818 57.62787569 29.33273876 57.3861055 27.71069336 55.50390625 C27.1558728 54.54291016 27.1558728 54.54291016 26.58984375 53.5625 C26.1623584 52.8398999 25.73487305 52.1172998 25.29443359 51.37280273 C24.84664551 50.58977783 24.39885742 49.80675293 23.9375 49 C22.97211832 47.3646639 22.00461032 45.73058146 21.03515625 44.09765625 C20.53902832 43.25734863 20.04290039 42.41704102 19.53173828 41.55126953 C17.07157729 37.45361534 14.48065329 33.44367576 11.875 29.4375 C11.16525024 28.34018555 11.16525024 28.34018555 10.44116211 27.22070312 C8.43183813 23.94629422 8.43183813 23.94629422 6 21 C6 30.9 6 40.8 6 51 C4.02 51 2.04 51 0 51 C-0.14302594 45.09181144 -0.28542572 39.18360825 -0.42724609 33.27539062 C-0.47557658 31.26562085 -0.52407795 29.25585518 -0.57275391 27.24609375 C-0.64270267 24.35678147 -0.71203622 21.46745497 -0.78125 18.578125 C-0.80312378 17.68007141 -0.82499756 16.78201782 -0.84753418 15.85675049 C-0.86755493 15.01618103 -0.88757568 14.17561157 -0.90820312 13.30957031 C-0.92596802 12.57232727 -0.94373291 11.83508423 -0.96203613 11.07550049 C-1.03284291 7.20446437 -0.83822786 3.77202537 0 0 Z " fill="#000000" transform="translate(268,299)"/>
<path d="M0 0 C4.84783124 0.6011292 9.02658632 2.07552344 13.48828125 3.9765625 C14.93130457 4.57112877 16.37467518 5.16485273 17.81835938 5.7578125 C20.0666691 6.68841807 22.31192453 7.62475553 24.55151367 8.57617188 C38.47302184 14.46751285 45.54290795 14.3106794 59.51757812 8.6953125 C60.90788095 8.13101792 62.29785254 7.56590658 63.6875 7 C65.77474399 6.15650318 67.86318501 5.31639837 69.95454407 4.4831543 C71.84464227 3.72921443 73.73044277 2.96452633 75.6159668 2.19921875 C78.77291708 1.08047264 81.68645784 0.4298786 85 0 C85 1.32 85 2.64 85 4 C79.57984227 6.15143146 74.15383663 8.28711356 68.72192383 10.40869141 C66.87650012 11.13197453 65.03272032 11.85946717 63.19067383 12.59130859 C60.5363213 13.64502132 57.87634465 14.6832477 55.21484375 15.71875 C54.39789536 16.04685669 53.58094696 16.37496338 52.73924255 16.7130127 C44.11313837 20.03299316 38.18390119 19.09189378 29.78515625 15.71875 C28.92941513 15.38580933 28.07367401 15.05286865 27.19200134 14.70983887 C24.47770736 13.65088967 21.77017215 12.57575278 19.0625 11.5 C17.21591804 10.77626292 15.36891666 10.05359501 13.52148438 9.33203125 C9.00937402 7.56702638 4.50325062 5.78748212 0 4 C0 2.68 0 1.36 0 0 Z " fill="#1D1D1D" transform="translate(214,365)"/>
<path d="M0 0 C2.87029869 1.79393668 4.49131638 2.98263276 6 6 C6.06996014 7.70702735 6.08440154 9.41668003 6.0625 11.125 C6.05347656 12.03507812 6.04445313 12.94515625 6.03515625 13.8828125 C6.02355469 14.58148438 6.01195312 15.28015625 6 16 C2.73188198 17.63405901 -0.84999407 17.18453757 -4.4375 17.1875 C-5.21416016 17.19974609 -5.99082031 17.21199219 -6.79101562 17.22460938 C-10.71232309 17.23474195 -12.66618745 17.2225417 -16 15 C-15.74610842 9.17318823 -15.38883987 5.25584472 -11 1 C-7.54260443 -0.72869779 -3.78024432 -0.48966895 0 0 Z " fill="#737373" transform="translate(261,289)"/>
<path d="M0 0 C2.31 0 4.62 0 7 0 C7 15.18 7 30.36 7 46 C4.69 46 2.38 46 0 46 C0 30.82 0 15.64 0 0 Z " fill="#020202" transform="translate(253,306)"/>
<path d="M0 0 C2.4375 0.375 2.4375 0.375 5 1 C6.14695805 3.2939161 6.12338652 4.56337149 6.12025452 7.11282349 C6.12162918 7.97381653 6.12300385 8.83480957 6.12442017 9.72189331 C6.12082489 10.66847809 6.11722961 11.61506287 6.11352539 12.59033203 C6.11367142 13.58548828 6.11381744 14.58064453 6.1139679 15.60595703 C6.11326931 18.90659743 6.10547944 22.20718192 6.09765625 25.5078125 C6.09579188 27.79181894 6.09436807 30.07582578 6.09336853 32.35983276 C6.08954487 38.38011778 6.07971586 44.40037879 6.06866455 50.4206543 C6.05844718 56.56038081 6.05387021 62.70011119 6.04882812 68.83984375 C6.03809348 80.89323973 6.02101885 92.94661787 6 105 C3.525 105.495 3.525 105.495 1 106 C1.99 105.505 1.99 105.505 3 105 C2.67 71.34 2.34 37.68 2 3 C1.34 2.67 0.68 2.34 0 2 C0 1.34 0 0.68 0 0 Z " fill="#4D4D4D" transform="translate(262,133)"/>
<path d="M0 0 C0.99 0.33 1.98 0.66 3 1 C3.9250532 4.68004031 3.97380409 7.37181614 3.22265625 11.08203125 C2.94711914 12.47905273 2.94711914 12.47905273 2.66601562 13.90429688 C2.46685547 14.86400391 2.26769531 15.82371094 2.0625 16.8125 C1.86720703 17.79154297 1.67191406 18.77058594 1.47070312 19.77929688 C0.98895351 22.18804496 0.49847659 24.59466777 0 27 C-1.47855295 27.50181191 -2.95786058 28.00140076 -4.4375 28.5 C-5.26121094 28.7784375 -6.08492188 29.056875 -6.93359375 29.34375 C-9 30 -9 30 -10 30 C-9.22095672 11.17995444 -9.22095672 11.17995444 -7 2 C-6.030625 1.855625 -5.06125 1.71125 -4.0625 1.5625 C-1.13513227 1.32437659 -1.13513227 1.32437659 0 0 Z " fill="#727272" transform="translate(284,407)"/>
<path d="M0 0 C4.29 0.66 8.58 1.32 13 2 C13.76106485 6.56638911 14.10902312 10.31573454 14.0625 14.875 C14.05347656 16.02742188 14.04445312 17.17984375 14.03515625 18.3671875 C14.02355469 19.23601562 14.01195312 20.10484375 14 21 C8.84374012 21.2062504 6.09792156 20.69930719 1 19 C0.67 12.73 0.34 6.46 0 0 Z " fill="#424242" transform="translate(238,419)"/>
<path d="M0 0 C0.33 0.66 0.66 1.32 1 2 C0.01 3.485 0.01 3.485 -1 5 C-1.15601961 8.59570772 -1.22105231 12.15493589 -1.12695312 15.75195312 C-1.16849911 18.02511194 -1.26117647 19.84568935 -2 22 C-3.57885742 23.22412109 -3.57885742 23.22412109 -5.4921875 24.17578125 C-9.2322255 25.59885251 -9.2322255 25.59885251 -9.90234375 28.796875 C-9.91394531 29.77140625 -9.92554688 30.7459375 -9.9375 31.75 C-9.96714844 32.73484375 -9.99679688 33.7196875 -10.02734375 34.734375 C-10.01832031 35.48203125 -10.00929687 36.2296875 -10 37 C-12.31 37 -14.62 37 -17 37 C-16.505 34.03 -16.505 34.03 -16 31 C-18.97 33.475 -18.97 33.475 -22 36 C-20.66047977 32.37893265 -19.03662666 29.26259194 -16.953125 26.015625 C-16.355 25.07976562 -15.756875 24.14390625 -15.140625 23.1796875 C-14.51671875 22.21289062 -13.8928125 21.24609375 -13.25 20.25 C-12.6415625 19.29867188 -12.033125 18.34734375 -11.40625 17.3671875 C-7.66745414 11.53530507 -3.86483362 5.74907384 0 0 Z " fill="#1D1D1D" transform="translate(241,315)"/>
<path d="M0 0 C0.6824176 0.05005188 1.36483521 0.10010376 2.06793213 0.15167236 C4.24009707 0.31558469 6.40848137 0.50890031 8.578125 0.703125 C10.05323273 0.81965754 11.52849404 0.93426311 13.00390625 1.046875 C16.61402718 1.32664824 20.22134729 1.632832 23.828125 1.953125 C23.828125 3.603125 23.828125 5.253125 23.828125 6.953125 C22.2503125 7.13875 22.2503125 7.13875 20.640625 7.328125 C17.36853729 7.86453282 14.82276424 8.59192535 11.828125 9.953125 C11.828125 10.613125 11.828125 11.273125 11.828125 11.953125 C10.508125 11.953125 9.188125 11.953125 7.828125 11.953125 C7.498125 10.633125 7.168125 9.313125 6.828125 7.953125 C5.508125 7.953125 4.188125 7.953125 2.828125 7.953125 C2.498125 7.623125 2.168125 7.293125 1.828125 6.953125 C0.16195385 6.91248668 -1.50575595 6.910404 -3.171875 6.953125 C-3.501875 7.613125 -3.831875 8.273125 -4.171875 8.953125 C-9.62115036 10.22848732 -9.62115036 10.22848732 -12.171875 8.953125 C-11.84148043 5.97957388 -11.35941892 4.20826264 -9.57324219 1.77832031 C-6.21724025 -0.77245953 -4.15740168 -0.34077063 0 0 Z " fill="#2F2F2F" transform="translate(241.171875,400.046875)"/>
<path d="M0 0 C4.21391987 3.82670358 6.92060864 8.86925418 9.95239258 13.6328125 C11.05669257 15.36588591 12.16948778 17.09327877 13.28320312 18.8203125 C13.98509766 19.91859375 14.68699219 21.016875 15.41015625 22.1484375 C16.05090088 23.15052246 16.69164551 24.15260742 17.35180664 25.18505859 C18.85130342 27.74604183 19.9882958 30.2161416 21 33 C19.02 31.35 17.04 29.7 15 28 C15.33 29.98 15.66 31.96 16 34 C13.69 34 11.38 34 9 34 C9.00902344 33.26394531 9.01804687 32.52789062 9.02734375 31.76953125 C8.99769531 30.79371094 8.96804688 29.81789063 8.9375 28.8125 C8.92009766 27.36810547 8.92009766 27.36810547 8.90234375 25.89453125 C7.8587801 22.54699592 7.37039627 22.41431026 4.5 20.71875 C2.19685196 19.24300635 1.17882467 18.55635068 0.33227539 15.92260742 C0.08915734 13.48915007 0.02969299 11.13258735 0.0625 8.6875 C0.03833008 7.43356445 0.03833008 7.43356445 0.01367188 6.15429688 C-0.02149046 4.10316089 -0.0149114 2.05138316 0 0 Z " fill="#1D1D1D" transform="translate(273,318)"/>
<path d="M0 0 C4.79022966 4.30543533 8.0890882 9.76223549 11.66601562 15.06445312 C12.17970703 15.81017578 12.69339844 16.55589844 13.22265625 17.32421875 C13.91500366 18.3464856 13.91500366 18.3464856 14.62133789 19.3894043 C16.00751854 21.28865246 16.00751854 21.28865246 19 22 C20.25854492 23.39868164 20.25854492 23.39868164 21.48046875 25.16015625 C21.92197266 25.78857422 22.36347656 26.41699219 22.81835938 27.06445312 C23.49608398 28.05348633 23.49608398 28.05348633 24.1875 29.0625 C24.65091797 29.72572266 25.11433594 30.38894531 25.59179688 31.07226562 C26.73472863 32.71007505 27.8682718 34.35442897 29 36 C28.13375 36.3403125 28.13375 36.3403125 27.25 36.6875 C24.4376721 38.32802461 22.97029539 40.43778814 21 43 C20.64808594 42.29093506 20.29617187 41.58187012 19.93359375 40.85131836 C18.29131386 37.54558689 16.64624162 34.24126041 15 30.9375 C14.70509674 30.34541748 14.41019348 29.75333496 14.10635376 29.14331055 C9.97994344 20.86598578 5.75710268 12.66237187 1.29296875 4.5625 C0 2 0 2 0 0 Z " fill="#1E1E1E" transform="translate(182,318)"/>
<path d="M0 0 C3.63 0 7.26 0 11 0 C11 6.27 11 12.54 11 19 C7.7 19 4.4 19 1 19 C0.67 12.73 0.34 6.46 0 0 Z " fill="#737373" transform="translate(251,421)"/>
<path d="M0 0 C0.33 0 0.66 0 1 0 C1.72657472 6.68448742 -0.37067778 11.41287546 -4 17 C-8.98282435 23.06998602 -16.25988877 26.39731616 -24.01367188 27.21142578 C-32.50125178 27.74718026 -40.1115531 27.44223138 -48 24 C-48 23.67 -48 23.34 -48 23 C-47.42668945 23.01571045 -46.85337891 23.0314209 -46.26269531 23.04760742 C-26.26926123 24.00662765 -26.26926123 24.00662765 -8.68359375 15.73828125 C-4.29975354 11.21204252 -1.66700872 6.0618499 0 0 Z " fill="#3C3C3C" transform="translate(334,262)"/>
<path d="M0 0 C0.33 0 0.66 0 1 0 C2.08936645 7.08088194 2.25579247 11.48841506 -1 18 C-1.59039062 18.56074219 -2.18078125 19.12148438 -2.7890625 19.69921875 C-5.85382447 22.88852052 -7.88554666 26.51605155 -10.125 30.3125 C-14.16063512 37.04426245 -18.33479288 43.64328926 -22.73876953 50.13989258 C-24.46786378 52.69231339 -26.11473209 55.21006096 -27.59375 57.91796875 C-28.0578125 58.60503906 -28.521875 59.29210937 -29 60 C-29.99 60 -30.98 60 -32 60 C-30.52233394 54.44782278 -27.78304309 50.34822622 -24.5625 45.6875 C-23.47679163 44.08927002 -22.39218261 42.49029275 -21.30859375 40.890625 C-20.75800293 40.08044922 -20.20741211 39.27027344 -19.64013672 38.43554688 C-16.60553768 33.92927119 -13.67113284 29.35817707 -10.74682617 24.77978516 C-8.39803827 21.11226559 -5.95948487 17.57001518 -3.375 14.0625 C-0.36797277 9.65564976 -0.02188848 5.24229156 0 0 Z " fill="#040404" transform="translate(244,297)"/>
<path d="M0 0 C0.33 0 0.66 0 1 0 C1.05027344 1.13566406 1.10054688 2.27132813 1.15234375 3.44140625 C1.8442992 8.85480042 4.49849935 12.53330825 7.5625 16.9375 C8.73824556 18.68664942 9.91265879 20.43669493 11.0859375 22.1875 C11.71467773 23.11691406 12.34341797 24.04632813 12.99121094 25.00390625 C16.63157568 30.43348284 20.15712578 35.93614379 23.6875 41.4375 C24.38238525 42.5092749 25.07727051 43.5810498 25.79321289 44.68530273 C26.76762329 46.20039429 26.76762329 46.20039429 27.76171875 47.74609375 C28.33881592 48.63997803 28.91591309 49.5338623 29.51049805 50.45483398 C30.94985844 52.9143213 32.0189336 55.32886879 33 58 C30.58660818 57.62787569 29.33273876 57.3861055 27.71069336 55.50390625 C27.1558728 54.54291016 27.1558728 54.54291016 26.58984375 53.5625 C26.16243896 52.83998047 25.73503418 52.11746094 25.29467773 51.37304688 C24.62287476 50.19838867 24.62287476 50.19838867 23.9375 49 C22.97076007 47.36339432 22.00195217 45.72800871 21.03125 44.09375 C20.53496094 43.25328125 20.03867187 42.4128125 19.52734375 41.546875 C17.08510451 37.47439423 14.5204372 33.48423997 11.9375 29.5 C11.4727124 28.77683594 11.0079248 28.05367188 10.52905273 27.30859375 C8.82171877 24.67480195 7.22626096 22.22626096 5 20 C2.00038522 16.45500072 -0.65788902 12.46834555 -2 8 C-1.75299065 5.03588775 -1.01283589 2.83594048 0 0 Z " fill="#060606" transform="translate(268,299)"/>
<path d="M0 0 C5.445 1.485 5.445 1.485 11 3 C11.89898617 9.06815666 12.08522169 14.86403867 12 21 C8.7 20.34 5.4 19.68 2 19 C1.34 12.73 0.68 6.46 0 0 Z " fill="#737373" transform="translate(227,416)"/>
<path d="M0 0 C2.25382125 2.25382125 2.64412667 3.69446128 3.625 6.6875 C6.28170229 13.40682368 10.12862178 16.85771025 16.37890625 20.31640625 C26.58661575 24.58076233 38.16021695 23.3582033 49 23 C40.8644486 28.42370093 29.66338451 28.15253308 20.3125 26.53515625 C12.07331635 24.11775688 6.1905175 19.18844871 1.91015625 11.83203125 C-0.09492327 7.79605574 -0.08384696 4.44388914 0 0 Z " fill="#3C3C3C" transform="translate(178,262)"/>
<path d="M0 0 C11.07135649 -0.71814204 22.13414554 0.85806168 31 8 C31.33 8.33 31.66 8.66 32 9 C31.63605188 13.73132555 30.8913368 17.18343542 28 21 C27.34 21 26.68 21 26 21 C25.34 17.04 24.68 13.08 24 9 C22.515 8.9071875 22.515 8.9071875 21 8.8125 C17.79640257 8.37506099 15.7857935 7.379106 13.125 5.5625 C8.95995929 2.73680572 4.92853521 1.7643793 0 1 C0 0.67 0 0.34 0 0 Z " fill="#ABABAB" transform="translate(298,251)"/>
<path d="M0 0 C1.72225991 2.23893788 3.25445765 4.43352045 4.6875 6.875 C9.9558544 13.99439783 17.36680834 18.20437729 26 20 C36.32150554 21.04347698 46.57895766 20.71052117 56 16 C58.3329866 15.95977609 60.66706666 15.95679753 63 16 C58.77900224 20.46929174 54.31712288 25.02813494 48 26 C49.24546405 22.26360784 50.63404953 21.81243487 54 20 C53.40316406 20.2165625 52.80632812 20.433125 52.19140625 20.65625 C39.79261966 24.63565253 25.82795848 24.88784973 14 19 C7.34071071 15.0755944 2.8052411 10.27389151 0 3 C0 2.01 0 1.02 0 0 Z " fill="#4E4E4E" transform="translate(175,271)"/>
<path d="M0 0 C4.31776354 0.59263421 5.56236104 2.01023525 8.1875 5.4375 C9.12133969 7.77935706 9.6524863 9.95698192 10.1875 12.4375 C9.3625 12.2725 8.5375 12.1075 7.6875 11.9375 C0.89075531 10.96653647 -3.71994426 10.78196655 -9.8125 14.4375 C-9.24223759 8.44974474 -6.59676461 1.02616338 0 0 Z " fill="#DADADA" transform="translate(255.8125,276.5625)"/>
<path d="M0 0 C10.24241163 -0.6024948 20.15459578 1.826273 29 7 C31 9 31 9 31.1171875 11.05859375 C31.03726563 11.84363281 30.95734375 12.62867188 30.875 13.4375 C30.81054688 14.21996094 30.74609375 15.00242187 30.6796875 15.80859375 C29.80269683 18.63613264 28.46321098 19.46172969 26 21 C25.93683594 20.31292969 25.87367188 19.62585938 25.80859375 18.91796875 C25.42904286 16.12527328 24.97414645 13.64779013 24 11 C20.78377123 8.9786137 20.78377123 8.9786137 17 8 C16.0925 7.34 15.185 6.68 14.25 6 C9.76953279 3.24278941 5.08792836 2.19502944 0 1 C0 0.67 0 0.34 0 0 Z " fill="#B1B1B1" transform="translate(209,251)"/>
<path d="M0 0 C0 2.64 0 5.28 0 8 C-9.9 8 -19.8 8 -30 8 C-26.71305714 5.80870476 -23.989235 5.03646875 -20.1875 4 C-16.68315998 3.03846619 -13.22502747 2.07838959 -9.79296875 0.8828125 C-6.43273585 -0.17930307 -3.50231897 -0.14009276 0 0 Z " fill="#020202" transform="translate(296,432)"/>
<path d="M0 0 C0.99 0 1.98 0 3 0 C7.59225513 10.37357631 7.59225513 10.37357631 7 16 C1.555 17.485 1.555 17.485 -4 19 C-2.92857143 2.92857143 -2.92857143 2.92857143 0 0 Z " fill="#414141" transform="translate(288,415)"/>
<path d="M0 0 C5.16303586 -0.30655525 9.17852219 0.76179878 14 2.375 C14.68578125 2.59671875 15.3715625 2.8184375 16.078125 3.046875 C18.05539478 3.68835565 20.02826079 4.34173933 22 5 C23.155 5.38414062 24.31 5.76828125 25.5 6.1640625 C26.325 6.43992187 27.15 6.71578125 28 7 C28 7.33 28 7.66 28 8 C18.76 8 9.52 8 0 8 C0 5.36 0 2.72 0 0 Z " fill="#020202" transform="translate(217,432)"/>
<path d="M0 0 C3 6.75 3 6.75 3 9 C1.35 9.33 -0.3 9.66 -2 10 C-2 9.34 -2 8.68 -2 8 C-5.3 7.67 -8.6 7.34 -12 7 C-12.33 7.66 -12.66 8.32 -13 9 C-14.32 8.67 -15.64 8.34 -17 8 C-17 9.32 -17 10.64 -17 12 C-18.32 12 -19.64 12 -21 12 C-21.33 10.35 -21.66 8.7 -22 7 C-19.69 7 -17.38 7 -15 7 C-15 5.35 -15 3.7 -15 2 C-9.92523206 0.73694665 -5.27203646 -0.27036084 0 0 Z " fill="#2F2F2F" transform="translate(280,400)"/>
<path d="M0 0 C-0.6885981 10.68514298 -0.6885981 10.68514298 -4 15 C-10.24391634 18.67566396 -16.85933795 19.69614204 -24 20 C-21.90781039 17.90781039 -20.51701545 17.281409 -17.8125 16.1875 C-13.37910745 14.28644979 -9.8231714 11.9283866 -6 9 C-7.98 9 -9.96 9 -12 9 C-3.66666667 0 -3.66666667 0 0 0 Z " fill="#B1B1B1" transform="translate(243,279)"/>
<path d="M0 0 C0.8353125 0.35964844 1.670625 0.71929687 2.53125 1.08984375 C4.70222417 2.03126928 6.8550473 3.0010504 9 4 C7 5 7 5 4.8984375 4.4765625 C3.23175129 3.9141204 1.56508425 3.3516215 -0.1015625 2.7890625 C-12.64031497 -0.62445232 -27.83224738 -0.50260449 -40 4 C-40.33 3.01 -40.66 2.02 -41 1 C-28.04754755 -3.66454879 -12.90646899 -6.12032954 0 0 Z " fill="#494949" transform="translate(227,211)"/>
<path d="M0 0 C-0.66 0.33 -1.32 0.66 -2 1 C-2.33 1.66 -2.66 2.32 -3 3 C-3.73476563 2.67515625 -3.73476563 2.67515625 -4.484375 2.34375 C-16.66824545 -2.19369141 -31.26260438 -1.15853578 -43.56640625 2.44140625 C-46 3 -46 3 -49 2 C-47.0848421 1.18395001 -45.16781166 0.37229368 -43.25 -0.4375 C-42.18265625 -0.88996094 -41.1153125 -1.34242188 -40.015625 -1.80859375 C-27.16812583 -6.88435443 -12.69484147 -4.19416591 0 0 Z " fill="#494949" transform="translate(328,212)"/>
<path d="M0 0 C0.66 0 1.32 0 2 0 C1.67 3.3 1.34 6.6 1 10 C-7.5 12 -7.5 12 -12 12 C-12.25 4.375 -12.25 4.375 -10 1 C-7.98177083 1.32552083 -5.96354167 1.65104167 -3.9453125 1.9765625 C-2.98238281 1.98816406 -2.98238281 1.98816406 -2 2 C-1.34 1.34 -0.68 0.68 0 0 Z " fill="#2E2E2E" transform="translate(275,409)"/>
<path d="M0 0 C1.60379341 -0.05416188 3.20811406 -0.09286638 4.8125 -0.125 C5.70582031 -0.14820313 6.59914062 -0.17140625 7.51953125 -0.1953125 C10 0 10 0 13 2 C13.70052461 4.663063 13.77744818 7.24035737 14 10 C12.20793453 9.85915204 10.41635083 9.71216299 8.625 9.5625 C7.62726563 9.48128906 6.62953125 9.40007812 5.6015625 9.31640625 C3 9 3 9 1 8 C0.40644386 5.35139573 0.25790731 2.70802678 0 0 Z " fill="#2F2F2F" transform="translate(237,411)"/>
<path d="M0 0 C5.61 0 11.22 0 17 0 C17 1.65 17 3.3 17 5 C15.948125 5.12375 14.89625 5.2475 13.8125 5.375 C10.54041229 5.91140782 7.99463924 6.63880035 5 8 C5 8.66 5 9.32 5 10 C3.68 10 2.36 10 1 10 C0.67 6.7 0.34 3.4 0 0 Z " fill="#4E4E4E" transform="translate(248,402)"/>
<path d="M0 0 C2.08995754 1.28808147 3.62288152 2.56156282 5.25 4.38671875 C-0.75 2.38671875 -0.75 2.38671875 -2.51953125 1.5859375 C-7.92433104 -0.66339732 -13.03543265 -0.90576288 -18.8125 -0.92578125 C-19.94606934 -0.93375732 -19.94606934 -0.93375732 -21.10253906 -0.94189453 C-33.00489298 -0.79434469 -42.14403587 3.31862738 -50.75 11.38671875 C-47.73937412 4.75192713 -42.52851811 1.44747275 -36 -1.48828125 C-24.24316475 -5.66487324 -11.28765636 -5.33918973 0 0 Z " fill="#2E2E2E" transform="translate(320.75,241.61328125)"/>
<path d="M0 0 C-0.33 2.64 -0.66 5.28 -1 8 C-4.63 8 -8.26 8 -12 8 C-12.33 5.36 -12.66 2.72 -13 0 C-8.12512139 -2.74211922 -5.08887875 -1.55253928 0 0 Z " fill="#515151" transform="translate(263,413)"/>
<path d="M0 0 C0.804375 0.495 0.804375 0.495 1.625 1 C4.5391061 2.22699204 6.86867708 2.14233286 10 2 C10.33 5.3 10.66 8.6 11 12 C1.64573991 10.66367713 1.64573991 10.66367713 -1.25 7.6875 C-2.17571441 4.3703567 -1.61682396 2.97835992 0 0 Z " fill="#505050" transform="translate(227,407)"/>
<path d="M0 0 C0.99 0.33 1.98 0.66 3 1 C3.79953138 4.28696233 4.09658936 5.71023192 3 9 C1.00390625 9.94921875 1.00390625 9.94921875 -1.4375 10.6875 C-2.24058594 10.93886719 -3.04367187 11.19023437 -3.87109375 11.44921875 C-6 12 -6 12 -8 12 C-8.1953125 5.9453125 -8.1953125 5.9453125 -8 4 C-5.62596029 1.62596029 -4.22523111 1.57888764 -1 1 C-0.67 0.67 -0.34 0.34 0 0 Z " fill="#515151" transform="translate(284,407)"/>
<path d="M0 0 C2.4375 0.8125 2.4375 0.8125 4.4375 2.8125 C4.6875 5.3125 4.6875 5.3125 4.4375 7.8125 C2.4375 9.8125 2.4375 9.8125 -0.5625 10.0625 C-3.5625 9.8125 -3.5625 9.8125 -5.5625 7.8125 C-5.93046448 4.94237704 -5.93759409 3.40475382 -4.375 0.9375 C-2.5625 -0.1875 -2.5625 -0.1875 0 0 Z " fill="#ADADAD" transform="translate(304.5625,355.1875)"/>
<path d="M0 0 C2.4375 0.8125 2.4375 0.8125 4.4375 2.8125 C4.6875 5.3125 4.6875 5.3125 4.4375 7.8125 C2.4375 9.8125 2.4375 9.8125 -0.5625 10.0625 C-3.5625 9.8125 -3.5625 9.8125 -5.5625 7.8125 C-5.93046448 4.94237704 -5.93759409 3.40475382 -4.375 0.9375 C-2.5625 -0.1875 -2.5625 -0.1875 0 0 Z " fill="#AEAEAE" transform="translate(209.5625,355.1875)"/>
<path d="M0 0 C0.99 0 1.98 0 3 0 C4.86242133 2.29943043 6.53504905 4.55786137 8.1875 7 C8.65091797 7.66773438 9.11433594 8.33546875 9.59179688 9.0234375 C10.73685497 10.67609867 11.86960265 12.33727669 13 14 C11 15 9 16 7 17 C6.13375 15.2365625 6.13375 15.2365625 5.25 13.4375 C3.8376212 10.58743095 2.33208533 7.84687467 0.6875 5.125 C-0.1478125 3.578125 -0.1478125 3.578125 -1 2 C-0.67 1.34 -0.34 0.68 0 0 Z " fill="#282828" transform="translate(198,340)"/>
<path d="M0 0 C-6.61825621 3.45954302 -11.41433198 4.18150681 -18.75 4.1875 C-19.5234375 4.19974609 -20.296875 4.21199219 -21.09375 4.22460938 C-26.38912518 4.23793666 -30.91101119 3.46976503 -36 2 C-33 0 -33 0 -30.86328125 0.36328125 C-29.44595703 0.67845703 -29.44595703 0.67845703 -28 1 C-25.06269242 1.18371896 -22.12986151 1.1850703 -19.1875 1.1875 C-18.03411133 1.20586914 -18.03411133 1.20586914 -16.85742188 1.22460938 C-12.89594682 1.23463843 -9.38652435 0.95551675 -5.55078125 -0.07421875 C-2 -1 -2 -1 0 0 Z " fill="#4C4C4C" transform="translate(322,290)"/>
<path d="M0 0 C1.45742463 -0.08096803 2.91612807 -0.13917774 4.375 -0.1875 C5.18710937 -0.22230469 5.99921875 -0.25710938 6.8359375 -0.29296875 C7.55007813 -0.19628906 8.26421875 -0.09960938 9 0 C11 3 11 3 11 6 C6.71 6 2.42 6 -2 6 C-1 2 -1 2 0 0 Z " fill="#AEAEAE" transform="translate(252,289)"/>
<path d="M0 0 C2.77314087 1.38657043 3.25953457 3.1201136 4.625 5.875 C5.29402344 7.20144531 5.29402344 7.20144531 5.9765625 8.5546875 C7 11 7 11 7 14 C4.69 14 2.38 14 0 14 C0 9.38 0 4.76 0 0 Z " fill="#0B0B0B" transform="translate(282,338)"/>
<path d="M0 0 C0.33 0 0.66 0 1 0 C1 4.62 1 9.24 1 14 C-1.31 14 -3.62 14 -6 14 C-5.41892368 10.2397015 -4.34800504 7.46964968 -2.4375 4.1875 C-1.98246094 3.39730469 -1.52742187 2.60710937 -1.05859375 1.79296875 C-0.53458984 0.90544922 -0.53458984 0.90544922 0 0 Z " fill="#0B0B0B" transform="translate(230,338)"/>
<path d="M0 0 C1.12921875 0.04253906 1.12921875 0.04253906 2.28125 0.0859375 C3.0340625 0.09882813 3.786875 0.11171875 4.5625 0.125 C6.97275034 0.48993227 8.67234398 1.26269544 10.78125 2.4609375 C10.78125 3.1209375 10.78125 3.7809375 10.78125 4.4609375 C5.17125 4.4609375 -0.43875 4.4609375 -6.21875 4.4609375 C-2.21875 0.4609375 -2.21875 0.4609375 0 0 Z " fill="#545454" transform="translate(253.21875,245.5390625)"/>
<path d="M0 0 C6.41753653 0.60542797 6.41753653 0.60542797 8.9375 2.3125 C10 4 10 4 10 8 C5.17965738 7.58682778 3.09007389 5.61980085 0 2 C0 1.34 0 0.68 0 0 Z " fill="#6D6D6D" transform="translate(277,270)"/>
<path d="M0 0 C0 0.33 0 0.66 0 1 C-3.74993479 1.05811773 -7.49975352 1.09363593 -11.25 1.125 C-12.84521484 1.15013672 -12.84521484 1.15013672 -14.47265625 1.17578125 C-16.00986328 1.18544922 -16.00986328 1.18544922 -17.578125 1.1953125 C-18.99206543 1.21102295 -18.99206543 1.21102295 -20.43457031 1.22705078 C-23.09951941 0.99119213 -24.71863092 0.35661659 -27 -1 C-8.65957447 -2.57446809 -8.65957447 -2.57446809 0 0 Z " fill="#585858" transform="translate(227,300)"/>
<path d="M0 0 C2.1875 -0.3125 2.1875 -0.3125 5 0 C7.8125 2.3125 7.8125 2.3125 10 5 C10 5.99 10 6.98 10 8 C6.46850054 7.67895459 4.44225392 7.34914783 1.625 5.125 C0 3 0 3 0 0 Z " fill="#6E6E6E" transform="translate(187,270)"/>
<path d="M0 0 C3.4340702 1.38517117 4.70022022 2.65444364 6.25 6 C6.75273437 7.051875 6.75273437 7.051875 7.265625 8.125 C8 10 8 10 8 12 C2.25 11.25 2.25 11.25 0 9 C0.33 8.67 0.66 8.34 1 8 C1.1613058 4.93518979 0.98150241 2.94450722 0 0 Z " fill="#B1B1B1" transform="translate(258,277)"/>
<path d="M0 0 C0.33 0 0.66 0 1 0 C2.07179278 6.96665307 2.47276787 11.65321735 -1 18 C-3.6875 18.9375 -3.6875 18.9375 -6 19 C-5.06106129 16.39986204 -4.24528148 14.29533892 -2.46875 12.15625 C-0.7085247 9.57208945 -0.51619463 7.84615832 -0.3125 4.75 C-0.24675781 3.85796875 -0.18101562 2.9659375 -0.11328125 2.046875 C-0.07589844 1.37140625 -0.03851563 0.6959375 0 0 Z " fill="#0A0A0A" transform="translate(244,297)"/>
<path d="M0 0 C1.72225991 2.23893788 3.25445765 4.43352045 4.6875 6.875 C7.19804446 10.26762764 9.77230758 12.30056306 13.1953125 14.703125 C15 16 15 16 17 18 C11.48458627 18 8.87600891 15.77623047 5 12 C2.2939486 8.18427285 0 4.74831996 0 0 Z " fill="#323232" transform="translate(175,271)"/>
<path d="M0 0 C2.375 1 2.375 1 4 2 C4 2.66 4 3.32 4 4 C-0.62 4 -5.24 4 -10 4 C-10 3.34 -10 2.68 -10 2 C-6.58794404 -0.09972674 -3.9699753 -0.33083127 0 0 Z " fill="#464646" transform="translate(259,259)"/>
<path d="M0 0 C0.33 0 0.66 0 1 0 C1 5.28 1 10.56 1 16 C0.01 16.33 -0.98 16.66 -2 17 C-2.05398987 14.72942623 -2.09278742 12.45848712 -2.125 10.1875 C-2.14820313 8.92292969 -2.17140625 7.65835938 -2.1953125 6.35546875 C-2 3 -2 3 0 0 Z " fill="#7E7E7E" transform="translate(270,221)"/>
<path d="M0 0 C2.18536546 1.79971273 3.12949135 3.1254772 4.125 5.75 C3.320625 5.09 2.51625 4.43 1.6875 3.75 C-2.32419278 1.09450596 -6.20275273 0.88384364 -10.875 1.75 C-13.22076488 2.86291913 -14.84643135 4.08553342 -16.875 5.75 C-15.44021739 1.20652174 -15.44021739 1.20652174 -13.25 -0.5625 C-8.52014886 -1.93166743 -4.46011815 -1.9391818 0 0 Z " fill="#282828" transform="translate(262.875,288.25)"/>
<path d="M0 0 C-1.60558484 1.92536938 -2.47769478 2.91074167 -4.99291992 3.34057617 C-5.73131104 3.32486572 -6.46970215 3.30915527 -7.23046875 3.29296875 C-8.03291016 3.28330078 -8.83535156 3.27363281 -9.66210938 3.26367188 C-10.49548828 3.23853516 -11.32886719 3.21339844 -12.1875 3.1875 C-13.03248047 3.17396484 -13.87746094 3.16042969 -14.74804688 3.14648438 C-16.83230384 3.11115799 -18.91623277 3.05735139 -21 3 C-21 2.67 -21 2.34 -21 2 C-16.545 1.505 -16.545 1.505 -12 1 C-12 0.67 -12 0.34 -12 0 C-10.56359829 -0.19573608 -9.12580496 -0.38127816 -7.6875 -0.5625 C-6.88699219 -0.66691406 -6.08648437 -0.77132813 -5.26171875 -0.87890625 C-3 -1 -3 -1 0 0 Z " fill="#0D0D0D" transform="translate(315,289)"/>
<path d="M0 0 C0.87527344 0.00773438 1.75054687 0.01546875 2.65234375 0.0234375 C3.53019531 0.01570312 4.40804688 0.00796875 5.3125 0 C6.43978516 0.19722656 6.43978516 0.19722656 7.58984375 0.3984375 C8.24984375 1.3884375 8.90984375 2.3784375 9.58984375 3.3984375 C4.63984375 3.3984375 -0.31015625 3.3984375 -5.41015625 3.3984375 C-2.41015625 0.3984375 -2.41015625 0.3984375 0 0 Z " fill="#5B5B5B" transform="translate(253.41015625,252.6015625)"/>
<path d="M0 0 C0.99 0.33 1.98 0.66 3 1 C-6.22551253 8.66742597 -6.22551253 8.66742597 -12 10 C-11 7 -11 7 -9.2578125 5.9375 C-8.55398437 5.628125 -7.85015625 5.31875 -7.125 5 C-4.16699274 3.69018129 -2.1766876 2.4094152 0 0 Z " fill="#494949" transform="translate(235,287)"/>
<path d="M0 0 C2.75 0.6875 2.75 0.6875 6 2 C6.94552734 2.36544922 6.94552734 2.36544922 7.91015625 2.73828125 C12.86015725 4.72031451 12.86015725 4.72031451 14 7 C8.07136283 5.83348574 2.61201606 4.24480642 -3 2 C-2.01 1.34 -1.02 0.68 0 0 Z " fill="#090909" transform="translate(316,242)"/>
<path d="M0 0 C0.99 0.66 1.98 1.32 3 2 C1.274773 2.67679658 -0.45538939 3.34102 -2.1875 4 C-3.15042969 4.37125 -4.11335937 4.7425 -5.10546875 5.125 C-7.92182358 5.97636772 -10.08164439 6.17072647 -13 6 C-10.65547166 3.65547166 -9.10275052 3.3073746 -5.9375 2.4375 C-2.6878857 1.7288742 -2.6878857 1.7288742 0 0 Z " fill="#545454" transform="translate(230,287)"/>
<path d="M0 0 C1.03159626 3.09478879 0.97482862 4.52631393 0.5625 7.6875 C0.46066406 8.49574219 0.35882813 9.30398438 0.25390625 10.13671875 C0.17011719 10.75160156 0.08632812 11.36648438 0 12 C-0.99 12 -1.98 12 -3 12 C-2.88601335 10.37419034 -2.75844341 8.74932843 -2.625 7.125 C-2.55539063 6.22007812 -2.48578125 5.31515625 -2.4140625 4.3828125 C-2 2 -2 2 0 0 Z " fill="#0C0C0C" transform="translate(243,293)"/>
<path d="M0 0 C1.65 0.33 3.3 0.66 5 1 C5 2.32 5 3.64 5 5 C3.35 4.67 1.7 4.34 0 4 C0 2.68 0 1.36 0 0 Z " fill="#A7A7A7" transform="translate(293,256)"/>
<path d="M0 0 C1.98 0.495 1.98 0.495 4 1 C4 2.32 4 3.64 4 5 C2.35 4.67 0.7 4.34 -1 4 C-0.67 2.68 -0.34 1.36 0 0 Z " fill="#ABABAB" transform="translate(206,256)"/>
<path d="M0 0 C2.64 0 5.28 0 8 0 C7.34 1.32 6.68 2.64 6 4 C4.35 3.67 2.7 3.34 1 3 C0.67 2.01 0.34 1.02 0 0 Z " fill="#767676" transform="translate(300,360)"/>
<path d="M0 0 C2.64 0 5.28 0 8 0 C7.34 1.32 6.68 2.64 6 4 C4.35 3.67 2.7 3.34 1 3 C0.67 2.01 0.34 1.02 0 0 Z " fill="#767676" transform="translate(205,360)"/>
<path d="M0 0 C0.33 0.66 0.66 1.32 1 2 C-1.66666667 4.66666667 -4.33333333 7.33333333 -7 10 C-7.66 9.67 -8.32 9.34 -9 9 C-6 6 -3 3 0 0 Z " fill="#353535" transform="translate(225,345)"/>
<path d="M0 0 C0.33 0 0.66 0 1 0 C1.25 6.625 1.25 6.625 -1 10 C-1.66 10 -2.32 10 -3 10 C-2.01 6.7 -1.02 3.4 0 0 Z " fill="#313131" transform="translate(334,262)"/>
<path d="M0 0 C0.66 0.33 1.32 0.66 2 1 C-3.28571429 7.42857143 -3.28571429 7.42857143 -6 10 C-5.58578031 5.16743695 -3.53586014 3.17320782 0 0 Z " fill="#2D2D2D" transform="translate(278,249)"/>
<path d="M0 0 C3.45925163 1.2491742 6.14693203 2.67527795 9 5 C4.73350364 5 3.36683915 4.43160605 0 2 C0 1.34 0 0.68 0 0 Z " fill="#393939" transform="translate(183,284)"/>
<path d="M0 0 C0.66 0.33 1.32 0.66 2 1 C1.67 2.32 1.34 3.64 1 5 C-0.32 5 -1.64 5 -3 5 C-3 3.68 -3 2.36 -3 1 C-2.01 0.67 -1.02 0.34 0 0 Z " fill="#383838" transform="translate(252,407)"/>
</svg>
